G75*
%MOIN*%
%OFA0B0*%
%FSLAX25Y25*%
%IPPOS*%
%LPD*%
%AMOC8*
5,1,8,0,0,1.08239X$1,22.5*
%
%ADD10C,0.00000*%
%ADD11C,0.00100*%
D10*
X0035681Y0002969D02*
X0035681Y0155331D01*
X0204973Y0155331D01*
X0204973Y0002969D01*
X0035681Y0002969D01*
X0171430Y0035528D02*
X0171432Y0035653D01*
X0171438Y0035778D01*
X0171448Y0035902D01*
X0171462Y0036026D01*
X0171479Y0036150D01*
X0171501Y0036273D01*
X0171527Y0036395D01*
X0171556Y0036517D01*
X0171589Y0036637D01*
X0171627Y0036756D01*
X0171667Y0036875D01*
X0171712Y0036991D01*
X0171760Y0037106D01*
X0171812Y0037220D01*
X0171868Y0037332D01*
X0171927Y0037442D01*
X0171989Y0037550D01*
X0172055Y0037657D01*
X0172124Y0037761D01*
X0172197Y0037862D01*
X0172272Y0037962D01*
X0172351Y0038059D01*
X0172433Y0038153D01*
X0172518Y0038245D01*
X0172605Y0038334D01*
X0172696Y0038420D01*
X0172789Y0038503D01*
X0172885Y0038584D01*
X0172983Y0038661D01*
X0173083Y0038735D01*
X0173186Y0038806D01*
X0173291Y0038873D01*
X0173399Y0038938D01*
X0173508Y0038998D01*
X0173619Y0039056D01*
X0173732Y0039109D01*
X0173846Y0039159D01*
X0173962Y0039206D01*
X0174079Y0039248D01*
X0174198Y0039287D01*
X0174318Y0039323D01*
X0174439Y0039354D01*
X0174561Y0039382D01*
X0174683Y0039405D01*
X0174807Y0039425D01*
X0174931Y0039441D01*
X0175055Y0039453D01*
X0175180Y0039461D01*
X0175305Y0039465D01*
X0175429Y0039465D01*
X0175554Y0039461D01*
X0175679Y0039453D01*
X0175803Y0039441D01*
X0175927Y0039425D01*
X0176051Y0039405D01*
X0176173Y0039382D01*
X0176295Y0039354D01*
X0176416Y0039323D01*
X0176536Y0039287D01*
X0176655Y0039248D01*
X0176772Y0039206D01*
X0176888Y0039159D01*
X0177002Y0039109D01*
X0177115Y0039056D01*
X0177226Y0038998D01*
X0177336Y0038938D01*
X0177443Y0038873D01*
X0177548Y0038806D01*
X0177651Y0038735D01*
X0177751Y0038661D01*
X0177849Y0038584D01*
X0177945Y0038503D01*
X0178038Y0038420D01*
X0178129Y0038334D01*
X0178216Y0038245D01*
X0178301Y0038153D01*
X0178383Y0038059D01*
X0178462Y0037962D01*
X0178537Y0037862D01*
X0178610Y0037761D01*
X0178679Y0037657D01*
X0178745Y0037550D01*
X0178807Y0037442D01*
X0178866Y0037332D01*
X0178922Y0037220D01*
X0178974Y0037106D01*
X0179022Y0036991D01*
X0179067Y0036875D01*
X0179107Y0036756D01*
X0179145Y0036637D01*
X0179178Y0036517D01*
X0179207Y0036395D01*
X0179233Y0036273D01*
X0179255Y0036150D01*
X0179272Y0036026D01*
X0179286Y0035902D01*
X0179296Y0035778D01*
X0179302Y0035653D01*
X0179304Y0035528D01*
X0179302Y0035403D01*
X0179296Y0035278D01*
X0179286Y0035154D01*
X0179272Y0035030D01*
X0179255Y0034906D01*
X0179233Y0034783D01*
X0179207Y0034661D01*
X0179178Y0034539D01*
X0179145Y0034419D01*
X0179107Y0034300D01*
X0179067Y0034181D01*
X0179022Y0034065D01*
X0178974Y0033950D01*
X0178922Y0033836D01*
X0178866Y0033724D01*
X0178807Y0033614D01*
X0178745Y0033506D01*
X0178679Y0033399D01*
X0178610Y0033295D01*
X0178537Y0033194D01*
X0178462Y0033094D01*
X0178383Y0032997D01*
X0178301Y0032903D01*
X0178216Y0032811D01*
X0178129Y0032722D01*
X0178038Y0032636D01*
X0177945Y0032553D01*
X0177849Y0032472D01*
X0177751Y0032395D01*
X0177651Y0032321D01*
X0177548Y0032250D01*
X0177443Y0032183D01*
X0177335Y0032118D01*
X0177226Y0032058D01*
X0177115Y0032000D01*
X0177002Y0031947D01*
X0176888Y0031897D01*
X0176772Y0031850D01*
X0176655Y0031808D01*
X0176536Y0031769D01*
X0176416Y0031733D01*
X0176295Y0031702D01*
X0176173Y0031674D01*
X0176051Y0031651D01*
X0175927Y0031631D01*
X0175803Y0031615D01*
X0175679Y0031603D01*
X0175554Y0031595D01*
X0175429Y0031591D01*
X0175305Y0031591D01*
X0175180Y0031595D01*
X0175055Y0031603D01*
X0174931Y0031615D01*
X0174807Y0031631D01*
X0174683Y0031651D01*
X0174561Y0031674D01*
X0174439Y0031702D01*
X0174318Y0031733D01*
X0174198Y0031769D01*
X0174079Y0031808D01*
X0173962Y0031850D01*
X0173846Y0031897D01*
X0173732Y0031947D01*
X0173619Y0032000D01*
X0173508Y0032058D01*
X0173398Y0032118D01*
X0173291Y0032183D01*
X0173186Y0032250D01*
X0173083Y0032321D01*
X0172983Y0032395D01*
X0172885Y0032472D01*
X0172789Y0032553D01*
X0172696Y0032636D01*
X0172605Y0032722D01*
X0172518Y0032811D01*
X0172433Y0032903D01*
X0172351Y0032997D01*
X0172272Y0033094D01*
X0172197Y0033194D01*
X0172124Y0033295D01*
X0172055Y0033399D01*
X0171989Y0033506D01*
X0171927Y0033614D01*
X0171868Y0033724D01*
X0171812Y0033836D01*
X0171760Y0033950D01*
X0171712Y0034065D01*
X0171667Y0034181D01*
X0171627Y0034300D01*
X0171589Y0034419D01*
X0171556Y0034539D01*
X0171527Y0034661D01*
X0171501Y0034783D01*
X0171479Y0034906D01*
X0171462Y0035030D01*
X0171448Y0035154D01*
X0171438Y0035278D01*
X0171432Y0035403D01*
X0171430Y0035528D01*
X0171430Y0075528D02*
X0171432Y0075653D01*
X0171438Y0075778D01*
X0171448Y0075902D01*
X0171462Y0076026D01*
X0171479Y0076150D01*
X0171501Y0076273D01*
X0171527Y0076395D01*
X0171556Y0076517D01*
X0171589Y0076637D01*
X0171627Y0076756D01*
X0171667Y0076875D01*
X0171712Y0076991D01*
X0171760Y0077106D01*
X0171812Y0077220D01*
X0171868Y0077332D01*
X0171927Y0077442D01*
X0171989Y0077550D01*
X0172055Y0077657D01*
X0172124Y0077761D01*
X0172197Y0077862D01*
X0172272Y0077962D01*
X0172351Y0078059D01*
X0172433Y0078153D01*
X0172518Y0078245D01*
X0172605Y0078334D01*
X0172696Y0078420D01*
X0172789Y0078503D01*
X0172885Y0078584D01*
X0172983Y0078661D01*
X0173083Y0078735D01*
X0173186Y0078806D01*
X0173291Y0078873D01*
X0173399Y0078938D01*
X0173508Y0078998D01*
X0173619Y0079056D01*
X0173732Y0079109D01*
X0173846Y0079159D01*
X0173962Y0079206D01*
X0174079Y0079248D01*
X0174198Y0079287D01*
X0174318Y0079323D01*
X0174439Y0079354D01*
X0174561Y0079382D01*
X0174683Y0079405D01*
X0174807Y0079425D01*
X0174931Y0079441D01*
X0175055Y0079453D01*
X0175180Y0079461D01*
X0175305Y0079465D01*
X0175429Y0079465D01*
X0175554Y0079461D01*
X0175679Y0079453D01*
X0175803Y0079441D01*
X0175927Y0079425D01*
X0176051Y0079405D01*
X0176173Y0079382D01*
X0176295Y0079354D01*
X0176416Y0079323D01*
X0176536Y0079287D01*
X0176655Y0079248D01*
X0176772Y0079206D01*
X0176888Y0079159D01*
X0177002Y0079109D01*
X0177115Y0079056D01*
X0177226Y0078998D01*
X0177336Y0078938D01*
X0177443Y0078873D01*
X0177548Y0078806D01*
X0177651Y0078735D01*
X0177751Y0078661D01*
X0177849Y0078584D01*
X0177945Y0078503D01*
X0178038Y0078420D01*
X0178129Y0078334D01*
X0178216Y0078245D01*
X0178301Y0078153D01*
X0178383Y0078059D01*
X0178462Y0077962D01*
X0178537Y0077862D01*
X0178610Y0077761D01*
X0178679Y0077657D01*
X0178745Y0077550D01*
X0178807Y0077442D01*
X0178866Y0077332D01*
X0178922Y0077220D01*
X0178974Y0077106D01*
X0179022Y0076991D01*
X0179067Y0076875D01*
X0179107Y0076756D01*
X0179145Y0076637D01*
X0179178Y0076517D01*
X0179207Y0076395D01*
X0179233Y0076273D01*
X0179255Y0076150D01*
X0179272Y0076026D01*
X0179286Y0075902D01*
X0179296Y0075778D01*
X0179302Y0075653D01*
X0179304Y0075528D01*
X0179302Y0075403D01*
X0179296Y0075278D01*
X0179286Y0075154D01*
X0179272Y0075030D01*
X0179255Y0074906D01*
X0179233Y0074783D01*
X0179207Y0074661D01*
X0179178Y0074539D01*
X0179145Y0074419D01*
X0179107Y0074300D01*
X0179067Y0074181D01*
X0179022Y0074065D01*
X0178974Y0073950D01*
X0178922Y0073836D01*
X0178866Y0073724D01*
X0178807Y0073614D01*
X0178745Y0073506D01*
X0178679Y0073399D01*
X0178610Y0073295D01*
X0178537Y0073194D01*
X0178462Y0073094D01*
X0178383Y0072997D01*
X0178301Y0072903D01*
X0178216Y0072811D01*
X0178129Y0072722D01*
X0178038Y0072636D01*
X0177945Y0072553D01*
X0177849Y0072472D01*
X0177751Y0072395D01*
X0177651Y0072321D01*
X0177548Y0072250D01*
X0177443Y0072183D01*
X0177335Y0072118D01*
X0177226Y0072058D01*
X0177115Y0072000D01*
X0177002Y0071947D01*
X0176888Y0071897D01*
X0176772Y0071850D01*
X0176655Y0071808D01*
X0176536Y0071769D01*
X0176416Y0071733D01*
X0176295Y0071702D01*
X0176173Y0071674D01*
X0176051Y0071651D01*
X0175927Y0071631D01*
X0175803Y0071615D01*
X0175679Y0071603D01*
X0175554Y0071595D01*
X0175429Y0071591D01*
X0175305Y0071591D01*
X0175180Y0071595D01*
X0175055Y0071603D01*
X0174931Y0071615D01*
X0174807Y0071631D01*
X0174683Y0071651D01*
X0174561Y0071674D01*
X0174439Y0071702D01*
X0174318Y0071733D01*
X0174198Y0071769D01*
X0174079Y0071808D01*
X0173962Y0071850D01*
X0173846Y0071897D01*
X0173732Y0071947D01*
X0173619Y0072000D01*
X0173508Y0072058D01*
X0173398Y0072118D01*
X0173291Y0072183D01*
X0173186Y0072250D01*
X0173083Y0072321D01*
X0172983Y0072395D01*
X0172885Y0072472D01*
X0172789Y0072553D01*
X0172696Y0072636D01*
X0172605Y0072722D01*
X0172518Y0072811D01*
X0172433Y0072903D01*
X0172351Y0072997D01*
X0172272Y0073094D01*
X0172197Y0073194D01*
X0172124Y0073295D01*
X0172055Y0073399D01*
X0171989Y0073506D01*
X0171927Y0073614D01*
X0171868Y0073724D01*
X0171812Y0073836D01*
X0171760Y0073950D01*
X0171712Y0074065D01*
X0171667Y0074181D01*
X0171627Y0074300D01*
X0171589Y0074419D01*
X0171556Y0074539D01*
X0171527Y0074661D01*
X0171501Y0074783D01*
X0171479Y0074906D01*
X0171462Y0075030D01*
X0171448Y0075154D01*
X0171438Y0075278D01*
X0171432Y0075403D01*
X0171430Y0075528D01*
D11*
X0171367Y0075528D02*
X0175367Y0075528D01*
X0179367Y0079528D01*
X0179367Y0071528D01*
X0175367Y0075528D01*
X0175367Y0035528D02*
X0171367Y0035528D01*
X0175367Y0035528D02*
X0179367Y0039528D01*
X0179367Y0031528D01*
X0175367Y0035528D01*
M02*
