%
M48
M72
T01C0.01181
T02C0.01575
T03C0.03543
T04C0.07874
T05C0.11024
T06C0.12598
%
T01
X40012Y26197
X41587Y33677
X49067Y33677
X56941Y39976
X63634Y39976
X69933Y39976
X76233Y39976
X82138Y39976
X88831Y38402
X94343Y42732
X99855Y42732
X105367Y42732
X110878Y46276
X118359Y44307
X122689Y39976
X126626Y44307
X134107Y47850
X141193Y47850
X148280Y47850
X155367Y47850
X146311Y39976
X134500Y28165
X110878Y28165
X87256Y28165
X75445Y16354
X76233Y7299
X82138Y7299
X88044Y7299
X93949Y7299
X99855Y7299
X105367Y7299
X111272Y7299
X117178Y7299
X123083Y7299
X128989Y7299
X134894Y7299
X140800Y7299
X146705Y7299
X152611Y7299
X158516Y7299
X164422Y7299
X170327Y7299
X176233Y7299
X182138Y7299
X169933Y16354
X158122Y28165
X181744Y28165
X200642Y26984
X200642Y32890
X200642Y38795
X193556Y39976
X200642Y44701
X200642Y50606
X200642Y56512
X200642Y62417
X193556Y63598
X200642Y68323
X200642Y74228
X200642Y80134
X200642Y86039
X193556Y87220
X200642Y91945
X200642Y97850
X169933Y87220
X152611Y83283
X148280Y83283
X143949Y83283
X139619Y83283
X135288Y83283
X126626Y78165
X126626Y70882
X126626Y64583
X134107Y63205
X141193Y63205
X148280Y63205
X169933Y63598
X181744Y51787
X158122Y75409
X120327Y58874
X120327Y52181
X108516Y63598
X103792Y65961
X98674Y65961
X92768Y67142
X88044Y64386
X82532Y60843
X76233Y58874
X69540Y58874
X62847Y58874
X56548Y58874
X49461Y65173
X41981Y65173
X40012Y73835
X40012Y79740
X40012Y85646
X40012Y91551
X40012Y97457
X40012Y103362
X40012Y109268
X40012Y115173
X40012Y121079
X40012Y126984
X40012Y132890
X51823Y130134
X63634Y141945
X65209Y151000
X59304Y151000
X71115Y151000
X77020Y151000
X82926Y151000
X88831Y151000
X94737Y151000
X100642Y151000
X106154Y151000
X112059Y151000
X117965Y151000
X123870Y151000
X129776Y151000
X135681Y151000
X134894Y145882
X130563Y145882
X126233Y145882
X121902Y145882
X110878Y141945
X87256Y141945
X75445Y130134
X63634Y118323
X51823Y106512
X63634Y94701
X75445Y106512
X87256Y94701
X99067Y106512
X87256Y118323
X121902Y102575
X135288Y113598
X139619Y113598
X143949Y113598
X148280Y113598
X152611Y113598
X200642Y119504
X200642Y125409
X200642Y131315
X170327Y145882
X165996Y145882
X161666Y145882
X157335Y145882
X153004Y145882
X148280Y145882
X143949Y145882
X139225Y145882
X141587Y151000
X147493Y151000
X153398Y151000
X159304Y151000
X165209Y151000
X171115Y151000
X177020Y151000
X182926Y151000
X99067Y82890
X87256Y71079
X75445Y82890
X63634Y71079
X51823Y82890
X63634Y28165
X64422Y7299
X70327Y7299
X58516Y7299
T02
X110878Y51787
X110878Y57299
X138831Y93126
X143949Y93126
X149067Y93126
X149067Y98244
X143949Y98244
X138831Y98244
X138831Y103362
X143949Y103362
X149067Y103362
T03
X155367Y65528
X155367Y55528
T04
X175367Y35528
X175367Y75528
T05
X171508Y108087
X195130Y108087
X183319Y126984
T06
X193162Y143520
X47493Y143520
X47493Y14780
X193162Y14780
M30
