G75*
%MOIN*%
%OFA0B0*%
%FSLAX25Y25*%
%IPPOS*%
%LPD*%
%AMOC8*
5,1,8,0,0,1.08239X$1,22.5*
%
%ADD10C,0.00900*%
%ADD11C,0.01969*%
%ADD12R,0.04803X0.04409*%
%ADD13R,0.02835X0.01457*%
%ADD14R,0.06772X0.08346*%
%ADD15C,0.06016*%
%ADD16C,0.08346*%
%ADD17R,0.23307X0.25669*%
%ADD18R,0.03622X0.09134*%
%ADD19R,0.04409X0.04803*%
%ADD20R,0.06378X0.05591*%
%ADD21C,0.16220*%
%ADD22R,0.04016X0.03228*%
%ADD23R,0.16472X0.06472*%
%ADD24R,0.16472X0.05472*%
%ADD25R,0.03622X0.03622*%
%ADD26R,0.11102X0.06772*%
%ADD27C,0.04016*%
%ADD28C,0.20157*%
D10*
X0092147Y0014836D02*
X0093847Y0014836D01*
X0092147Y0014836D02*
X0092147Y0018660D01*
X0095889Y0018660D02*
X0095889Y0014836D01*
X0097164Y0016536D02*
X0098439Y0018660D01*
X0098439Y0014836D01*
X0097164Y0016536D02*
X0095889Y0018660D01*
X0100920Y0018660D02*
X0100920Y0014836D01*
X0100920Y0016960D02*
X0103045Y0016960D01*
X0103045Y0018660D02*
X0103045Y0014836D01*
X0105314Y0015898D02*
X0105314Y0016960D01*
X0106589Y0016960D01*
X0105314Y0016960D02*
X0105316Y0017041D01*
X0105322Y0017122D01*
X0105331Y0017202D01*
X0105345Y0017282D01*
X0105362Y0017361D01*
X0105383Y0017439D01*
X0105407Y0017516D01*
X0105436Y0017592D01*
X0105468Y0017666D01*
X0105503Y0017739D01*
X0105542Y0017810D01*
X0105584Y0017879D01*
X0105629Y0017946D01*
X0105678Y0018011D01*
X0105729Y0018073D01*
X0105784Y0018133D01*
X0105841Y0018190D01*
X0105901Y0018245D01*
X0105963Y0018296D01*
X0106028Y0018345D01*
X0106095Y0018390D01*
X0106164Y0018432D01*
X0106235Y0018471D01*
X0106308Y0018506D01*
X0106382Y0018538D01*
X0106458Y0018566D01*
X0106535Y0018591D01*
X0106613Y0018612D01*
X0106692Y0018629D01*
X0106772Y0018643D01*
X0106852Y0018652D01*
X0106933Y0018658D01*
X0107014Y0018660D01*
X0107439Y0016111D02*
X0107439Y0015898D01*
X0107439Y0016111D02*
X0107437Y0016167D01*
X0107432Y0016222D01*
X0107423Y0016277D01*
X0107410Y0016331D01*
X0107394Y0016384D01*
X0107374Y0016436D01*
X0107351Y0016487D01*
X0107325Y0016536D01*
X0107296Y0016583D01*
X0107263Y0016628D01*
X0107228Y0016671D01*
X0107190Y0016712D01*
X0107149Y0016750D01*
X0107106Y0016785D01*
X0107061Y0016818D01*
X0107014Y0016847D01*
X0106965Y0016873D01*
X0106914Y0016896D01*
X0106862Y0016916D01*
X0106809Y0016932D01*
X0106755Y0016945D01*
X0106700Y0016954D01*
X0106645Y0016959D01*
X0106589Y0016961D01*
X0107438Y0015898D02*
X0107436Y0015834D01*
X0107430Y0015770D01*
X0107421Y0015707D01*
X0107407Y0015644D01*
X0107390Y0015582D01*
X0107369Y0015521D01*
X0107344Y0015462D01*
X0107316Y0015404D01*
X0107285Y0015349D01*
X0107250Y0015295D01*
X0107212Y0015243D01*
X0107171Y0015194D01*
X0107127Y0015147D01*
X0107080Y0015103D01*
X0107031Y0015062D01*
X0106979Y0015024D01*
X0106925Y0014989D01*
X0106870Y0014958D01*
X0106812Y0014930D01*
X0106753Y0014905D01*
X0106692Y0014884D01*
X0106630Y0014867D01*
X0106567Y0014853D01*
X0106504Y0014844D01*
X0106440Y0014838D01*
X0106376Y0014836D01*
X0106312Y0014838D01*
X0106248Y0014844D01*
X0106185Y0014853D01*
X0106122Y0014867D01*
X0106060Y0014884D01*
X0105999Y0014905D01*
X0105940Y0014930D01*
X0105882Y0014958D01*
X0105827Y0014989D01*
X0105773Y0015024D01*
X0105721Y0015062D01*
X0105672Y0015103D01*
X0105625Y0015147D01*
X0105581Y0015194D01*
X0105540Y0015243D01*
X0105502Y0015295D01*
X0105467Y0015349D01*
X0105436Y0015404D01*
X0105408Y0015462D01*
X0105383Y0015521D01*
X0105362Y0015582D01*
X0105345Y0015644D01*
X0105331Y0015707D01*
X0105322Y0015770D01*
X0105316Y0015834D01*
X0105314Y0015898D01*
X0109566Y0015898D02*
X0109566Y0016960D01*
X0110841Y0016960D01*
X0109566Y0016960D02*
X0109568Y0017041D01*
X0109574Y0017122D01*
X0109583Y0017202D01*
X0109597Y0017282D01*
X0109614Y0017361D01*
X0109635Y0017439D01*
X0109659Y0017516D01*
X0109688Y0017592D01*
X0109720Y0017666D01*
X0109755Y0017739D01*
X0109794Y0017810D01*
X0109836Y0017879D01*
X0109881Y0017946D01*
X0109930Y0018011D01*
X0109981Y0018073D01*
X0110036Y0018133D01*
X0110093Y0018190D01*
X0110153Y0018245D01*
X0110215Y0018296D01*
X0110280Y0018345D01*
X0110347Y0018390D01*
X0110416Y0018432D01*
X0110487Y0018471D01*
X0110560Y0018506D01*
X0110634Y0018538D01*
X0110710Y0018566D01*
X0110787Y0018591D01*
X0110865Y0018612D01*
X0110944Y0018629D01*
X0111024Y0018643D01*
X0111104Y0018652D01*
X0111185Y0018658D01*
X0111266Y0018660D01*
X0111691Y0016111D02*
X0111691Y0015898D01*
X0111691Y0016111D02*
X0111689Y0016167D01*
X0111684Y0016222D01*
X0111675Y0016277D01*
X0111662Y0016331D01*
X0111646Y0016384D01*
X0111626Y0016436D01*
X0111603Y0016487D01*
X0111577Y0016536D01*
X0111548Y0016583D01*
X0111515Y0016628D01*
X0111480Y0016671D01*
X0111442Y0016712D01*
X0111401Y0016750D01*
X0111358Y0016785D01*
X0111313Y0016818D01*
X0111266Y0016847D01*
X0111217Y0016873D01*
X0111166Y0016896D01*
X0111114Y0016916D01*
X0111061Y0016932D01*
X0111007Y0016945D01*
X0110952Y0016954D01*
X0110897Y0016959D01*
X0110841Y0016961D01*
X0111690Y0015898D02*
X0111688Y0015834D01*
X0111682Y0015770D01*
X0111673Y0015707D01*
X0111659Y0015644D01*
X0111642Y0015582D01*
X0111621Y0015521D01*
X0111596Y0015462D01*
X0111568Y0015404D01*
X0111537Y0015349D01*
X0111502Y0015295D01*
X0111464Y0015243D01*
X0111423Y0015194D01*
X0111379Y0015147D01*
X0111332Y0015103D01*
X0111283Y0015062D01*
X0111231Y0015024D01*
X0111177Y0014989D01*
X0111122Y0014958D01*
X0111064Y0014930D01*
X0111005Y0014905D01*
X0110944Y0014884D01*
X0110882Y0014867D01*
X0110819Y0014853D01*
X0110756Y0014844D01*
X0110692Y0014838D01*
X0110628Y0014836D01*
X0110564Y0014838D01*
X0110500Y0014844D01*
X0110437Y0014853D01*
X0110374Y0014867D01*
X0110312Y0014884D01*
X0110251Y0014905D01*
X0110192Y0014930D01*
X0110134Y0014958D01*
X0110079Y0014989D01*
X0110025Y0015024D01*
X0109973Y0015062D01*
X0109924Y0015103D01*
X0109877Y0015147D01*
X0109833Y0015194D01*
X0109792Y0015243D01*
X0109754Y0015295D01*
X0109719Y0015349D01*
X0109688Y0015404D01*
X0109660Y0015462D01*
X0109635Y0015521D01*
X0109614Y0015582D01*
X0109597Y0015644D01*
X0109583Y0015707D01*
X0109574Y0015770D01*
X0109568Y0015834D01*
X0109566Y0015898D01*
X0113818Y0014836D02*
X0115943Y0014836D01*
X0113818Y0014836D02*
X0115624Y0016960D01*
X0114986Y0018660D02*
X0114919Y0018658D01*
X0114852Y0018653D01*
X0114785Y0018644D01*
X0114720Y0018631D01*
X0114654Y0018614D01*
X0114590Y0018595D01*
X0114527Y0018571D01*
X0114466Y0018544D01*
X0114406Y0018514D01*
X0114348Y0018481D01*
X0114291Y0018444D01*
X0114237Y0018405D01*
X0114185Y0018363D01*
X0114135Y0018317D01*
X0114088Y0018270D01*
X0114044Y0018219D01*
X0114002Y0018167D01*
X0113963Y0018112D01*
X0113928Y0018055D01*
X0113895Y0017996D01*
X0113866Y0017936D01*
X0113840Y0017874D01*
X0113818Y0017810D01*
X0115624Y0016960D02*
X0115666Y0017002D01*
X0115705Y0017047D01*
X0115742Y0017094D01*
X0115776Y0017143D01*
X0115807Y0017193D01*
X0115835Y0017246D01*
X0115860Y0017299D01*
X0115882Y0017355D01*
X0115900Y0017411D01*
X0115916Y0017468D01*
X0115928Y0017527D01*
X0115936Y0017585D01*
X0115941Y0017645D01*
X0115943Y0017704D01*
X0115942Y0017704D02*
X0115940Y0017764D01*
X0115934Y0017824D01*
X0115925Y0017883D01*
X0115912Y0017942D01*
X0115895Y0017999D01*
X0115875Y0018056D01*
X0115851Y0018111D01*
X0115824Y0018165D01*
X0115793Y0018216D01*
X0115759Y0018266D01*
X0115723Y0018313D01*
X0115683Y0018358D01*
X0115640Y0018401D01*
X0115595Y0018441D01*
X0115548Y0018477D01*
X0115498Y0018511D01*
X0115447Y0018542D01*
X0115393Y0018569D01*
X0115338Y0018593D01*
X0115281Y0018613D01*
X0115224Y0018630D01*
X0115165Y0018643D01*
X0115106Y0018652D01*
X0115046Y0018658D01*
X0114986Y0018660D01*
X0118070Y0017598D02*
X0118070Y0017385D01*
X0118072Y0017329D01*
X0118077Y0017274D01*
X0118086Y0017219D01*
X0118099Y0017165D01*
X0118115Y0017112D01*
X0118135Y0017060D01*
X0118158Y0017009D01*
X0118184Y0016960D01*
X0118213Y0016913D01*
X0118246Y0016868D01*
X0118281Y0016825D01*
X0118319Y0016784D01*
X0118360Y0016746D01*
X0118403Y0016711D01*
X0118448Y0016678D01*
X0118495Y0016649D01*
X0118544Y0016623D01*
X0118595Y0016600D01*
X0118647Y0016580D01*
X0118700Y0016564D01*
X0118754Y0016551D01*
X0118809Y0016542D01*
X0118864Y0016537D01*
X0118920Y0016535D01*
X0118920Y0016536D02*
X0120195Y0016536D01*
X0120195Y0017598D01*
X0120194Y0017598D02*
X0120192Y0017662D01*
X0120186Y0017726D01*
X0120177Y0017789D01*
X0120163Y0017852D01*
X0120146Y0017914D01*
X0120125Y0017975D01*
X0120100Y0018034D01*
X0120072Y0018092D01*
X0120041Y0018147D01*
X0120006Y0018201D01*
X0119968Y0018253D01*
X0119927Y0018302D01*
X0119883Y0018349D01*
X0119836Y0018393D01*
X0119787Y0018434D01*
X0119735Y0018472D01*
X0119681Y0018507D01*
X0119626Y0018538D01*
X0119568Y0018566D01*
X0119509Y0018591D01*
X0119448Y0018612D01*
X0119386Y0018629D01*
X0119323Y0018643D01*
X0119260Y0018652D01*
X0119196Y0018658D01*
X0119132Y0018660D01*
X0119068Y0018658D01*
X0119004Y0018652D01*
X0118941Y0018643D01*
X0118878Y0018629D01*
X0118816Y0018612D01*
X0118755Y0018591D01*
X0118696Y0018566D01*
X0118638Y0018538D01*
X0118583Y0018507D01*
X0118529Y0018472D01*
X0118477Y0018434D01*
X0118428Y0018393D01*
X0118381Y0018349D01*
X0118337Y0018302D01*
X0118296Y0018253D01*
X0118258Y0018201D01*
X0118223Y0018147D01*
X0118192Y0018092D01*
X0118164Y0018034D01*
X0118139Y0017975D01*
X0118118Y0017914D01*
X0118101Y0017852D01*
X0118087Y0017789D01*
X0118078Y0017726D01*
X0118072Y0017662D01*
X0118070Y0017598D01*
X0120195Y0016536D02*
X0120193Y0016455D01*
X0120187Y0016374D01*
X0120178Y0016294D01*
X0120164Y0016214D01*
X0120147Y0016135D01*
X0120126Y0016057D01*
X0120102Y0015980D01*
X0120073Y0015904D01*
X0120041Y0015830D01*
X0120006Y0015757D01*
X0119967Y0015686D01*
X0119925Y0015617D01*
X0119880Y0015550D01*
X0119831Y0015485D01*
X0119780Y0015423D01*
X0119725Y0015363D01*
X0119668Y0015306D01*
X0119608Y0015251D01*
X0119546Y0015200D01*
X0119481Y0015151D01*
X0119414Y0015106D01*
X0119345Y0015064D01*
X0119274Y0015025D01*
X0119201Y0014990D01*
X0119127Y0014958D01*
X0119051Y0014929D01*
X0118974Y0014905D01*
X0118896Y0014884D01*
X0118817Y0014867D01*
X0118737Y0014853D01*
X0118657Y0014844D01*
X0118576Y0014838D01*
X0118495Y0014836D01*
X0124106Y0017385D02*
X0125381Y0017385D01*
X0124531Y0018660D02*
X0124531Y0015473D01*
X0124533Y0015425D01*
X0124538Y0015378D01*
X0124547Y0015331D01*
X0124559Y0015285D01*
X0124575Y0015240D01*
X0124594Y0015197D01*
X0124616Y0015155D01*
X0124642Y0015114D01*
X0124670Y0015076D01*
X0124701Y0015040D01*
X0124735Y0015006D01*
X0124771Y0014975D01*
X0124809Y0014947D01*
X0124850Y0014921D01*
X0124892Y0014899D01*
X0124935Y0014880D01*
X0124980Y0014864D01*
X0125026Y0014852D01*
X0125073Y0014843D01*
X0125120Y0014838D01*
X0125168Y0014836D01*
X0125381Y0014836D01*
X0127211Y0015473D02*
X0127211Y0016536D01*
X0127211Y0016111D02*
X0128911Y0016111D01*
X0128911Y0016536D01*
X0128909Y0016593D01*
X0128903Y0016649D01*
X0128894Y0016705D01*
X0128881Y0016761D01*
X0128864Y0016815D01*
X0128844Y0016868D01*
X0128820Y0016919D01*
X0128792Y0016969D01*
X0128762Y0017017D01*
X0128728Y0017063D01*
X0128691Y0017106D01*
X0128652Y0017147D01*
X0128610Y0017185D01*
X0128565Y0017220D01*
X0128518Y0017252D01*
X0128469Y0017281D01*
X0128419Y0017307D01*
X0128366Y0017329D01*
X0128313Y0017348D01*
X0128258Y0017363D01*
X0128202Y0017374D01*
X0128146Y0017382D01*
X0128089Y0017386D01*
X0128033Y0017386D01*
X0127976Y0017382D01*
X0127920Y0017374D01*
X0127864Y0017363D01*
X0127809Y0017348D01*
X0127756Y0017329D01*
X0127703Y0017307D01*
X0127653Y0017281D01*
X0127604Y0017252D01*
X0127557Y0017220D01*
X0127512Y0017185D01*
X0127470Y0017147D01*
X0127431Y0017106D01*
X0127394Y0017063D01*
X0127360Y0017017D01*
X0127330Y0016969D01*
X0127302Y0016919D01*
X0127278Y0016868D01*
X0127258Y0016815D01*
X0127241Y0016761D01*
X0127228Y0016705D01*
X0127219Y0016649D01*
X0127213Y0016593D01*
X0127211Y0016536D01*
X0127212Y0015473D02*
X0127214Y0015425D01*
X0127219Y0015378D01*
X0127228Y0015331D01*
X0127240Y0015285D01*
X0127256Y0015240D01*
X0127275Y0015197D01*
X0127297Y0015155D01*
X0127323Y0015114D01*
X0127351Y0015076D01*
X0127382Y0015040D01*
X0127416Y0015006D01*
X0127452Y0014975D01*
X0127490Y0014947D01*
X0127531Y0014921D01*
X0127573Y0014899D01*
X0127616Y0014880D01*
X0127661Y0014864D01*
X0127707Y0014852D01*
X0127754Y0014843D01*
X0127801Y0014838D01*
X0127849Y0014836D01*
X0128911Y0014836D01*
X0131427Y0017386D02*
X0131517Y0017383D01*
X0131607Y0017377D01*
X0131696Y0017367D01*
X0131784Y0017354D01*
X0131873Y0017338D01*
X0131960Y0017318D01*
X0132047Y0017296D01*
X0132133Y0017270D01*
X0132218Y0017241D01*
X0132301Y0017209D01*
X0132384Y0017173D01*
X0131428Y0017386D02*
X0131382Y0017385D01*
X0131336Y0017379D01*
X0131290Y0017370D01*
X0131246Y0017358D01*
X0131202Y0017341D01*
X0131161Y0017321D01*
X0131121Y0017298D01*
X0131083Y0017271D01*
X0131047Y0017241D01*
X0131015Y0017208D01*
X0130985Y0017173D01*
X0130958Y0017135D01*
X0130934Y0017095D01*
X0130914Y0017053D01*
X0130898Y0017010D01*
X0130885Y0016966D01*
X0130876Y0016920D01*
X0130870Y0016874D01*
X0130869Y0016828D01*
X0130872Y0016782D01*
X0130878Y0016736D01*
X0130888Y0016691D01*
X0130902Y0016646D01*
X0130920Y0016604D01*
X0130941Y0016562D01*
X0130966Y0016523D01*
X0130994Y0016486D01*
X0131024Y0016452D01*
X0131058Y0016420D01*
X0131094Y0016391D01*
X0131133Y0016365D01*
X0131173Y0016342D01*
X0131215Y0016323D01*
X0132278Y0015898D01*
X0132278Y0015899D02*
X0132320Y0015880D01*
X0132360Y0015857D01*
X0132399Y0015831D01*
X0132435Y0015802D01*
X0132469Y0015770D01*
X0132499Y0015736D01*
X0132527Y0015699D01*
X0132552Y0015660D01*
X0132573Y0015618D01*
X0132591Y0015576D01*
X0132605Y0015531D01*
X0132615Y0015486D01*
X0132621Y0015440D01*
X0132624Y0015394D01*
X0132623Y0015348D01*
X0132617Y0015302D01*
X0132608Y0015256D01*
X0132595Y0015212D01*
X0132579Y0015169D01*
X0132559Y0015127D01*
X0132535Y0015087D01*
X0132508Y0015049D01*
X0132478Y0015014D01*
X0132446Y0014981D01*
X0132410Y0014951D01*
X0132372Y0014924D01*
X0132332Y0014901D01*
X0132291Y0014881D01*
X0132247Y0014864D01*
X0132203Y0014852D01*
X0132157Y0014843D01*
X0132111Y0014837D01*
X0132065Y0014836D01*
X0134594Y0015473D02*
X0134594Y0018660D01*
X0134169Y0017385D02*
X0135444Y0017385D01*
X0134594Y0015473D02*
X0134596Y0015425D01*
X0134601Y0015378D01*
X0134610Y0015331D01*
X0134622Y0015285D01*
X0134638Y0015240D01*
X0134657Y0015197D01*
X0134679Y0015155D01*
X0134705Y0015114D01*
X0134733Y0015076D01*
X0134764Y0015040D01*
X0134798Y0015006D01*
X0134834Y0014975D01*
X0134872Y0014947D01*
X0134913Y0014921D01*
X0134955Y0014899D01*
X0134998Y0014880D01*
X0135043Y0014864D01*
X0135089Y0014852D01*
X0135136Y0014843D01*
X0135183Y0014838D01*
X0135231Y0014836D01*
X0135444Y0014836D01*
X0139721Y0014836D02*
X0140783Y0014836D01*
X0140831Y0014838D01*
X0140878Y0014843D01*
X0140925Y0014852D01*
X0140971Y0014864D01*
X0141016Y0014880D01*
X0141059Y0014899D01*
X0141102Y0014921D01*
X0141142Y0014947D01*
X0141180Y0014975D01*
X0141216Y0015006D01*
X0141250Y0015040D01*
X0141281Y0015076D01*
X0141309Y0015114D01*
X0141335Y0015155D01*
X0141357Y0015197D01*
X0141376Y0015240D01*
X0141392Y0015285D01*
X0141404Y0015331D01*
X0141413Y0015378D01*
X0141418Y0015425D01*
X0141420Y0015473D01*
X0141421Y0015473D02*
X0141421Y0016748D01*
X0141420Y0016748D02*
X0141418Y0016796D01*
X0141413Y0016843D01*
X0141404Y0016890D01*
X0141392Y0016936D01*
X0141376Y0016981D01*
X0141357Y0017024D01*
X0141335Y0017067D01*
X0141309Y0017107D01*
X0141281Y0017145D01*
X0141250Y0017181D01*
X0141216Y0017215D01*
X0141180Y0017246D01*
X0141142Y0017274D01*
X0141102Y0017300D01*
X0141059Y0017322D01*
X0141016Y0017341D01*
X0140971Y0017357D01*
X0140925Y0017369D01*
X0140878Y0017378D01*
X0140831Y0017383D01*
X0140783Y0017385D01*
X0139721Y0017385D01*
X0139721Y0013561D01*
X0143377Y0015473D02*
X0143377Y0016748D01*
X0143378Y0016748D02*
X0143380Y0016796D01*
X0143385Y0016843D01*
X0143394Y0016890D01*
X0143406Y0016936D01*
X0143422Y0016981D01*
X0143441Y0017024D01*
X0143463Y0017067D01*
X0143489Y0017107D01*
X0143517Y0017145D01*
X0143548Y0017181D01*
X0143582Y0017215D01*
X0143618Y0017246D01*
X0143656Y0017274D01*
X0143697Y0017300D01*
X0143739Y0017322D01*
X0143782Y0017341D01*
X0143827Y0017357D01*
X0143873Y0017369D01*
X0143920Y0017378D01*
X0143967Y0017383D01*
X0144015Y0017385D01*
X0144865Y0017385D01*
X0146807Y0017385D02*
X0147870Y0017385D01*
X0147918Y0017383D01*
X0147965Y0017378D01*
X0148012Y0017369D01*
X0148058Y0017357D01*
X0148103Y0017341D01*
X0148146Y0017322D01*
X0148189Y0017300D01*
X0148229Y0017274D01*
X0148267Y0017246D01*
X0148303Y0017215D01*
X0148337Y0017181D01*
X0148368Y0017145D01*
X0148396Y0017107D01*
X0148422Y0017067D01*
X0148444Y0017024D01*
X0148463Y0016981D01*
X0148479Y0016936D01*
X0148491Y0016890D01*
X0148500Y0016843D01*
X0148505Y0016796D01*
X0148507Y0016748D01*
X0148507Y0015473D01*
X0148505Y0015425D01*
X0148500Y0015378D01*
X0148491Y0015331D01*
X0148479Y0015285D01*
X0148463Y0015240D01*
X0148444Y0015197D01*
X0148422Y0015155D01*
X0148396Y0015114D01*
X0148368Y0015076D01*
X0148337Y0015040D01*
X0148303Y0015006D01*
X0148267Y0014975D01*
X0148229Y0014947D01*
X0148189Y0014921D01*
X0148146Y0014899D01*
X0148103Y0014880D01*
X0148058Y0014864D01*
X0148012Y0014852D01*
X0147965Y0014843D01*
X0147918Y0014838D01*
X0147870Y0014836D01*
X0146807Y0014836D01*
X0146807Y0018660D01*
X0143378Y0015473D02*
X0143380Y0015425D01*
X0143385Y0015378D01*
X0143394Y0015331D01*
X0143406Y0015285D01*
X0143422Y0015240D01*
X0143441Y0015197D01*
X0143463Y0015155D01*
X0143489Y0015114D01*
X0143517Y0015076D01*
X0143548Y0015040D01*
X0143582Y0015006D01*
X0143618Y0014975D01*
X0143656Y0014947D01*
X0143697Y0014921D01*
X0143739Y0014899D01*
X0143782Y0014880D01*
X0143827Y0014864D01*
X0143873Y0014852D01*
X0143920Y0014843D01*
X0143967Y0014838D01*
X0144015Y0014836D01*
X0144865Y0014836D01*
X0132065Y0014836D02*
X0131945Y0014840D01*
X0131826Y0014848D01*
X0131708Y0014859D01*
X0131589Y0014875D01*
X0131471Y0014894D01*
X0131354Y0014917D01*
X0131238Y0014945D01*
X0131123Y0014976D01*
X0131009Y0015010D01*
X0130896Y0015049D01*
D11*
X0102296Y0061236D02*
X0102298Y0061271D01*
X0102304Y0061306D01*
X0102314Y0061340D01*
X0102327Y0061373D01*
X0102344Y0061404D01*
X0102365Y0061432D01*
X0102388Y0061459D01*
X0102415Y0061482D01*
X0102443Y0061503D01*
X0102474Y0061520D01*
X0102507Y0061533D01*
X0102541Y0061543D01*
X0102576Y0061549D01*
X0102611Y0061551D01*
X0102646Y0061549D01*
X0102681Y0061543D01*
X0102715Y0061533D01*
X0102748Y0061520D01*
X0102779Y0061503D01*
X0102807Y0061482D01*
X0102834Y0061459D01*
X0102857Y0061432D01*
X0102878Y0061404D01*
X0102895Y0061373D01*
X0102908Y0061340D01*
X0102918Y0061306D01*
X0102924Y0061271D01*
X0102926Y0061236D01*
X0102924Y0061201D01*
X0102918Y0061166D01*
X0102908Y0061132D01*
X0102895Y0061099D01*
X0102878Y0061068D01*
X0102857Y0061040D01*
X0102834Y0061013D01*
X0102807Y0060990D01*
X0102779Y0060969D01*
X0102748Y0060952D01*
X0102715Y0060939D01*
X0102681Y0060929D01*
X0102646Y0060923D01*
X0102611Y0060921D01*
X0102576Y0060923D01*
X0102541Y0060929D01*
X0102507Y0060939D01*
X0102474Y0060952D01*
X0102443Y0060969D01*
X0102415Y0060990D01*
X0102388Y0061013D01*
X0102365Y0061040D01*
X0102344Y0061068D01*
X0102327Y0061099D01*
X0102314Y0061132D01*
X0102304Y0061166D01*
X0102298Y0061201D01*
X0102296Y0061236D01*
D12*
X0115406Y0064583D03*
X0122099Y0064583D03*
X0122099Y0071079D03*
X0115406Y0071079D03*
X0115406Y0078165D03*
X0122099Y0078165D03*
X0126626Y0055528D03*
X0126626Y0048835D03*
X0088831Y0049622D03*
X0077611Y0049622D03*
X0070918Y0049622D03*
X0088831Y0042929D03*
X0122099Y0107102D03*
X0122099Y0113795D03*
X0122099Y0119504D03*
X0115406Y0119504D03*
D13*
X0116430Y0057457D03*
X0116430Y0055488D03*
X0116430Y0053520D03*
X0116430Y0051551D03*
X0105406Y0051551D03*
X0105406Y0053520D03*
X0105406Y0055488D03*
X0105406Y0057457D03*
D14*
X0110918Y0054504D03*
D15*
X0155367Y0055528D03*
X0155367Y0065528D03*
D16*
X0175367Y0075528D03*
X0175367Y0035528D03*
D17*
X0143949Y0098450D03*
D18*
X0139449Y0125244D03*
X0134949Y0125244D03*
X0148449Y0125244D03*
X0152949Y0125244D03*
D19*
X0155760Y0133087D03*
X0148674Y0133087D03*
X0139225Y0133874D03*
X0139225Y0140567D03*
X0148674Y0139780D03*
X0155760Y0139780D03*
X0122099Y0125409D03*
X0115406Y0125409D03*
X0115406Y0133283D03*
X0108713Y0133283D03*
X0134697Y0055331D03*
X0141390Y0055331D03*
D20*
X0162059Y0096079D03*
X0162059Y0103559D03*
X0131744Y0133480D03*
X0123083Y0133480D03*
X0123083Y0140961D03*
X0131744Y0140961D03*
D21*
X0183319Y0126984D03*
X0171508Y0108087D03*
X0195130Y0108087D03*
D22*
X0098674Y0059858D03*
X0092768Y0058283D03*
X0098674Y0054740D03*
X0092768Y0063402D03*
D23*
X0045650Y0059425D03*
X0045650Y0039425D03*
D24*
X0045650Y0049425D03*
D25*
X0095721Y0133283D03*
X0101626Y0133283D03*
D26*
X0165603Y0129740D03*
X0165603Y0140764D03*
D27*
X0149067Y0103362D03*
X0143949Y0103362D03*
X0138831Y0103362D03*
X0138831Y0098244D03*
X0143949Y0098244D03*
X0149067Y0098244D03*
X0149067Y0093126D03*
X0143949Y0093126D03*
X0138831Y0093126D03*
X0110878Y0057299D03*
X0110878Y0051787D03*
D28*
X0047493Y0014780D03*
X0193162Y0014780D03*
X0193162Y0143520D03*
X0047493Y0143520D03*
M02*
