G75*
%MOIN*%
%OFA0B0*%
%FSLAX25Y25*%
%IPPOS*%
%LPD*%
%AMOC8*
5,1,8,0,0,1.08239X$1,22.5*
%
%ADD10C,0.00000*%
%ADD11R,0.04331X0.03937*%
%ADD12R,0.02362X0.00984*%
%ADD13R,0.06299X0.07874*%
%ADD14C,0.05543*%
%ADD15R,0.22835X0.25197*%
%ADD16R,0.03150X0.08661*%
%ADD17R,0.03937X0.04331*%
%ADD18R,0.05906X0.05118*%
%ADD19C,0.15748*%
%ADD20R,0.03543X0.02756*%
%ADD21R,0.16000X0.06000*%
%ADD22R,0.16000X0.05000*%
%ADD23R,0.03150X0.03150*%
%ADD24R,0.10630X0.06299*%
%ADD25C,0.00984*%
%ADD26C,0.00787*%
%ADD27C,0.03543*%
%ADD28C,0.03150*%
%ADD29C,0.19685*%
%ADD30C,0.01181*%
%ADD31C,0.01969*%
D10*
X0035681Y0002969D02*
X0035681Y0155331D01*
X0204973Y0155331D01*
X0204973Y0002969D01*
X0035681Y0002969D01*
X0171430Y0035528D02*
X0171432Y0035653D01*
X0171438Y0035778D01*
X0171448Y0035902D01*
X0171462Y0036026D01*
X0171479Y0036150D01*
X0171501Y0036273D01*
X0171527Y0036395D01*
X0171556Y0036517D01*
X0171589Y0036637D01*
X0171627Y0036756D01*
X0171667Y0036875D01*
X0171712Y0036991D01*
X0171760Y0037106D01*
X0171812Y0037220D01*
X0171868Y0037332D01*
X0171927Y0037442D01*
X0171989Y0037550D01*
X0172055Y0037657D01*
X0172124Y0037761D01*
X0172197Y0037862D01*
X0172272Y0037962D01*
X0172351Y0038059D01*
X0172433Y0038153D01*
X0172518Y0038245D01*
X0172605Y0038334D01*
X0172696Y0038420D01*
X0172789Y0038503D01*
X0172885Y0038584D01*
X0172983Y0038661D01*
X0173083Y0038735D01*
X0173186Y0038806D01*
X0173291Y0038873D01*
X0173399Y0038938D01*
X0173508Y0038998D01*
X0173619Y0039056D01*
X0173732Y0039109D01*
X0173846Y0039159D01*
X0173962Y0039206D01*
X0174079Y0039248D01*
X0174198Y0039287D01*
X0174318Y0039323D01*
X0174439Y0039354D01*
X0174561Y0039382D01*
X0174683Y0039405D01*
X0174807Y0039425D01*
X0174931Y0039441D01*
X0175055Y0039453D01*
X0175180Y0039461D01*
X0175305Y0039465D01*
X0175429Y0039465D01*
X0175554Y0039461D01*
X0175679Y0039453D01*
X0175803Y0039441D01*
X0175927Y0039425D01*
X0176051Y0039405D01*
X0176173Y0039382D01*
X0176295Y0039354D01*
X0176416Y0039323D01*
X0176536Y0039287D01*
X0176655Y0039248D01*
X0176772Y0039206D01*
X0176888Y0039159D01*
X0177002Y0039109D01*
X0177115Y0039056D01*
X0177226Y0038998D01*
X0177336Y0038938D01*
X0177443Y0038873D01*
X0177548Y0038806D01*
X0177651Y0038735D01*
X0177751Y0038661D01*
X0177849Y0038584D01*
X0177945Y0038503D01*
X0178038Y0038420D01*
X0178129Y0038334D01*
X0178216Y0038245D01*
X0178301Y0038153D01*
X0178383Y0038059D01*
X0178462Y0037962D01*
X0178537Y0037862D01*
X0178610Y0037761D01*
X0178679Y0037657D01*
X0178745Y0037550D01*
X0178807Y0037442D01*
X0178866Y0037332D01*
X0178922Y0037220D01*
X0178974Y0037106D01*
X0179022Y0036991D01*
X0179067Y0036875D01*
X0179107Y0036756D01*
X0179145Y0036637D01*
X0179178Y0036517D01*
X0179207Y0036395D01*
X0179233Y0036273D01*
X0179255Y0036150D01*
X0179272Y0036026D01*
X0179286Y0035902D01*
X0179296Y0035778D01*
X0179302Y0035653D01*
X0179304Y0035528D01*
X0179302Y0035403D01*
X0179296Y0035278D01*
X0179286Y0035154D01*
X0179272Y0035030D01*
X0179255Y0034906D01*
X0179233Y0034783D01*
X0179207Y0034661D01*
X0179178Y0034539D01*
X0179145Y0034419D01*
X0179107Y0034300D01*
X0179067Y0034181D01*
X0179022Y0034065D01*
X0178974Y0033950D01*
X0178922Y0033836D01*
X0178866Y0033724D01*
X0178807Y0033614D01*
X0178745Y0033506D01*
X0178679Y0033399D01*
X0178610Y0033295D01*
X0178537Y0033194D01*
X0178462Y0033094D01*
X0178383Y0032997D01*
X0178301Y0032903D01*
X0178216Y0032811D01*
X0178129Y0032722D01*
X0178038Y0032636D01*
X0177945Y0032553D01*
X0177849Y0032472D01*
X0177751Y0032395D01*
X0177651Y0032321D01*
X0177548Y0032250D01*
X0177443Y0032183D01*
X0177335Y0032118D01*
X0177226Y0032058D01*
X0177115Y0032000D01*
X0177002Y0031947D01*
X0176888Y0031897D01*
X0176772Y0031850D01*
X0176655Y0031808D01*
X0176536Y0031769D01*
X0176416Y0031733D01*
X0176295Y0031702D01*
X0176173Y0031674D01*
X0176051Y0031651D01*
X0175927Y0031631D01*
X0175803Y0031615D01*
X0175679Y0031603D01*
X0175554Y0031595D01*
X0175429Y0031591D01*
X0175305Y0031591D01*
X0175180Y0031595D01*
X0175055Y0031603D01*
X0174931Y0031615D01*
X0174807Y0031631D01*
X0174683Y0031651D01*
X0174561Y0031674D01*
X0174439Y0031702D01*
X0174318Y0031733D01*
X0174198Y0031769D01*
X0174079Y0031808D01*
X0173962Y0031850D01*
X0173846Y0031897D01*
X0173732Y0031947D01*
X0173619Y0032000D01*
X0173508Y0032058D01*
X0173398Y0032118D01*
X0173291Y0032183D01*
X0173186Y0032250D01*
X0173083Y0032321D01*
X0172983Y0032395D01*
X0172885Y0032472D01*
X0172789Y0032553D01*
X0172696Y0032636D01*
X0172605Y0032722D01*
X0172518Y0032811D01*
X0172433Y0032903D01*
X0172351Y0032997D01*
X0172272Y0033094D01*
X0172197Y0033194D01*
X0172124Y0033295D01*
X0172055Y0033399D01*
X0171989Y0033506D01*
X0171927Y0033614D01*
X0171868Y0033724D01*
X0171812Y0033836D01*
X0171760Y0033950D01*
X0171712Y0034065D01*
X0171667Y0034181D01*
X0171627Y0034300D01*
X0171589Y0034419D01*
X0171556Y0034539D01*
X0171527Y0034661D01*
X0171501Y0034783D01*
X0171479Y0034906D01*
X0171462Y0035030D01*
X0171448Y0035154D01*
X0171438Y0035278D01*
X0171432Y0035403D01*
X0171430Y0035528D01*
X0171430Y0075528D02*
X0171432Y0075653D01*
X0171438Y0075778D01*
X0171448Y0075902D01*
X0171462Y0076026D01*
X0171479Y0076150D01*
X0171501Y0076273D01*
X0171527Y0076395D01*
X0171556Y0076517D01*
X0171589Y0076637D01*
X0171627Y0076756D01*
X0171667Y0076875D01*
X0171712Y0076991D01*
X0171760Y0077106D01*
X0171812Y0077220D01*
X0171868Y0077332D01*
X0171927Y0077442D01*
X0171989Y0077550D01*
X0172055Y0077657D01*
X0172124Y0077761D01*
X0172197Y0077862D01*
X0172272Y0077962D01*
X0172351Y0078059D01*
X0172433Y0078153D01*
X0172518Y0078245D01*
X0172605Y0078334D01*
X0172696Y0078420D01*
X0172789Y0078503D01*
X0172885Y0078584D01*
X0172983Y0078661D01*
X0173083Y0078735D01*
X0173186Y0078806D01*
X0173291Y0078873D01*
X0173399Y0078938D01*
X0173508Y0078998D01*
X0173619Y0079056D01*
X0173732Y0079109D01*
X0173846Y0079159D01*
X0173962Y0079206D01*
X0174079Y0079248D01*
X0174198Y0079287D01*
X0174318Y0079323D01*
X0174439Y0079354D01*
X0174561Y0079382D01*
X0174683Y0079405D01*
X0174807Y0079425D01*
X0174931Y0079441D01*
X0175055Y0079453D01*
X0175180Y0079461D01*
X0175305Y0079465D01*
X0175429Y0079465D01*
X0175554Y0079461D01*
X0175679Y0079453D01*
X0175803Y0079441D01*
X0175927Y0079425D01*
X0176051Y0079405D01*
X0176173Y0079382D01*
X0176295Y0079354D01*
X0176416Y0079323D01*
X0176536Y0079287D01*
X0176655Y0079248D01*
X0176772Y0079206D01*
X0176888Y0079159D01*
X0177002Y0079109D01*
X0177115Y0079056D01*
X0177226Y0078998D01*
X0177336Y0078938D01*
X0177443Y0078873D01*
X0177548Y0078806D01*
X0177651Y0078735D01*
X0177751Y0078661D01*
X0177849Y0078584D01*
X0177945Y0078503D01*
X0178038Y0078420D01*
X0178129Y0078334D01*
X0178216Y0078245D01*
X0178301Y0078153D01*
X0178383Y0078059D01*
X0178462Y0077962D01*
X0178537Y0077862D01*
X0178610Y0077761D01*
X0178679Y0077657D01*
X0178745Y0077550D01*
X0178807Y0077442D01*
X0178866Y0077332D01*
X0178922Y0077220D01*
X0178974Y0077106D01*
X0179022Y0076991D01*
X0179067Y0076875D01*
X0179107Y0076756D01*
X0179145Y0076637D01*
X0179178Y0076517D01*
X0179207Y0076395D01*
X0179233Y0076273D01*
X0179255Y0076150D01*
X0179272Y0076026D01*
X0179286Y0075902D01*
X0179296Y0075778D01*
X0179302Y0075653D01*
X0179304Y0075528D01*
X0179302Y0075403D01*
X0179296Y0075278D01*
X0179286Y0075154D01*
X0179272Y0075030D01*
X0179255Y0074906D01*
X0179233Y0074783D01*
X0179207Y0074661D01*
X0179178Y0074539D01*
X0179145Y0074419D01*
X0179107Y0074300D01*
X0179067Y0074181D01*
X0179022Y0074065D01*
X0178974Y0073950D01*
X0178922Y0073836D01*
X0178866Y0073724D01*
X0178807Y0073614D01*
X0178745Y0073506D01*
X0178679Y0073399D01*
X0178610Y0073295D01*
X0178537Y0073194D01*
X0178462Y0073094D01*
X0178383Y0072997D01*
X0178301Y0072903D01*
X0178216Y0072811D01*
X0178129Y0072722D01*
X0178038Y0072636D01*
X0177945Y0072553D01*
X0177849Y0072472D01*
X0177751Y0072395D01*
X0177651Y0072321D01*
X0177548Y0072250D01*
X0177443Y0072183D01*
X0177335Y0072118D01*
X0177226Y0072058D01*
X0177115Y0072000D01*
X0177002Y0071947D01*
X0176888Y0071897D01*
X0176772Y0071850D01*
X0176655Y0071808D01*
X0176536Y0071769D01*
X0176416Y0071733D01*
X0176295Y0071702D01*
X0176173Y0071674D01*
X0176051Y0071651D01*
X0175927Y0071631D01*
X0175803Y0071615D01*
X0175679Y0071603D01*
X0175554Y0071595D01*
X0175429Y0071591D01*
X0175305Y0071591D01*
X0175180Y0071595D01*
X0175055Y0071603D01*
X0174931Y0071615D01*
X0174807Y0071631D01*
X0174683Y0071651D01*
X0174561Y0071674D01*
X0174439Y0071702D01*
X0174318Y0071733D01*
X0174198Y0071769D01*
X0174079Y0071808D01*
X0173962Y0071850D01*
X0173846Y0071897D01*
X0173732Y0071947D01*
X0173619Y0072000D01*
X0173508Y0072058D01*
X0173398Y0072118D01*
X0173291Y0072183D01*
X0173186Y0072250D01*
X0173083Y0072321D01*
X0172983Y0072395D01*
X0172885Y0072472D01*
X0172789Y0072553D01*
X0172696Y0072636D01*
X0172605Y0072722D01*
X0172518Y0072811D01*
X0172433Y0072903D01*
X0172351Y0072997D01*
X0172272Y0073094D01*
X0172197Y0073194D01*
X0172124Y0073295D01*
X0172055Y0073399D01*
X0171989Y0073506D01*
X0171927Y0073614D01*
X0171868Y0073724D01*
X0171812Y0073836D01*
X0171760Y0073950D01*
X0171712Y0074065D01*
X0171667Y0074181D01*
X0171627Y0074300D01*
X0171589Y0074419D01*
X0171556Y0074539D01*
X0171527Y0074661D01*
X0171501Y0074783D01*
X0171479Y0074906D01*
X0171462Y0075030D01*
X0171448Y0075154D01*
X0171438Y0075278D01*
X0171432Y0075403D01*
X0171430Y0075528D01*
D11*
X0126626Y0055528D03*
X0126626Y0048835D03*
X0122099Y0064583D03*
X0115406Y0064583D03*
X0115406Y0071079D03*
X0122099Y0071079D03*
X0122099Y0078165D03*
X0115406Y0078165D03*
X0088831Y0049622D03*
X0077611Y0049622D03*
X0070918Y0049622D03*
X0088831Y0042929D03*
X0122099Y0107102D03*
X0122099Y0113795D03*
X0122099Y0119504D03*
X0115406Y0119504D03*
D12*
X0116430Y0057457D03*
X0116430Y0055488D03*
X0116430Y0053520D03*
X0116430Y0051551D03*
X0105406Y0051551D03*
X0105406Y0053520D03*
X0105406Y0055488D03*
X0105406Y0057457D03*
D13*
X0110918Y0054504D03*
D14*
X0155367Y0055528D03*
X0155367Y0065528D03*
D15*
X0143949Y0098450D03*
D16*
X0139449Y0125244D03*
X0134949Y0125244D03*
X0148449Y0125244D03*
X0152949Y0125244D03*
D17*
X0155760Y0133087D03*
X0148674Y0133087D03*
X0139225Y0133874D03*
X0139225Y0140567D03*
X0148674Y0139780D03*
X0155760Y0139780D03*
X0122099Y0125409D03*
X0115406Y0125409D03*
X0115406Y0133283D03*
X0108713Y0133283D03*
X0134697Y0055331D03*
X0141390Y0055331D03*
D18*
X0162059Y0096079D03*
X0162059Y0103559D03*
X0131744Y0133480D03*
X0123083Y0133480D03*
X0123083Y0140961D03*
X0131744Y0140961D03*
D19*
X0183319Y0126984D03*
X0171508Y0108087D03*
X0195130Y0108087D03*
D20*
X0098674Y0059858D03*
X0092768Y0058283D03*
X0098674Y0054740D03*
X0092768Y0063402D03*
D21*
X0045650Y0059425D03*
X0045650Y0039425D03*
D22*
X0045650Y0049425D03*
D23*
X0095721Y0133283D03*
X0101626Y0133283D03*
D24*
X0165603Y0129740D03*
X0165603Y0140764D03*
D25*
X0120327Y0058874D02*
X0118910Y0057457D01*
X0116430Y0057457D01*
X0116430Y0055488D02*
X0126587Y0055488D01*
X0126626Y0055528D01*
X0120327Y0052181D02*
X0118989Y0053520D01*
X0116430Y0053520D01*
X0116430Y0051551D02*
X0113870Y0051551D01*
X0105406Y0051551D02*
X0102768Y0051551D01*
X0100839Y0049622D01*
D26*
X0102453Y0053520D02*
X0101233Y0054740D01*
X0098674Y0054740D01*
X0096311Y0054740D01*
X0092768Y0058283D01*
X0094449Y0062324D02*
X0087363Y0062324D01*
X0086956Y0061917D01*
X0081851Y0056812D01*
X0038044Y0056812D01*
X0038044Y0152969D01*
X0202611Y0152969D01*
X0202611Y0005331D01*
X0038044Y0005331D01*
X0038044Y0042039D01*
X0082426Y0042039D01*
X0082832Y0042445D01*
X0085181Y0044794D01*
X0104473Y0044794D01*
X0104879Y0045201D01*
X0108029Y0048350D01*
X0108029Y0058374D01*
X0107622Y0058780D01*
X0102504Y0063898D01*
X0096024Y0063898D01*
X0095618Y0063492D01*
X0094449Y0062324D01*
X0094824Y0062698D02*
X0038044Y0062698D01*
X0038044Y0063484D02*
X0095609Y0063484D01*
X0098674Y0059858D02*
X0098870Y0059858D01*
X0103241Y0055488D01*
X0105406Y0055488D01*
X0105406Y0053520D02*
X0102453Y0053520D01*
X0108029Y0053267D02*
X0114067Y0053267D01*
X0114067Y0052538D02*
X0114759Y0051846D01*
X0117571Y0051846D01*
X0117571Y0051633D01*
X0117665Y0051407D01*
X0117665Y0050319D01*
X0118071Y0049913D01*
X0118698Y0049913D01*
X0118766Y0049845D01*
X0119779Y0049425D01*
X0120875Y0049425D01*
X0121888Y0049845D01*
X0121956Y0049913D01*
X0158410Y0049913D01*
X0160378Y0051881D01*
X0160785Y0052287D01*
X0160785Y0058768D01*
X0158816Y0060736D01*
X0158410Y0061143D01*
X0121956Y0061143D01*
X0121888Y0061210D01*
X0120875Y0061630D01*
X0119779Y0061630D01*
X0119146Y0061368D01*
X0119146Y0110944D01*
X0119444Y0110646D01*
X0124753Y0110646D01*
X0125445Y0111338D01*
X0125445Y0116253D01*
X0125049Y0116650D01*
X0125445Y0117046D01*
X0125445Y0121962D01*
X0124950Y0122457D01*
X0125248Y0122755D01*
X0125248Y0123638D01*
X0132193Y0123638D01*
X0132193Y0120424D01*
X0132885Y0119732D01*
X0137013Y0119732D01*
X0137088Y0119807D01*
X0137391Y0119504D01*
X0141452Y0119504D01*
X0142374Y0120426D01*
X0142374Y0137085D01*
X0141452Y0138008D01*
X0112588Y0138008D01*
X0111666Y0137085D01*
X0111666Y0136135D01*
X0111171Y0136630D01*
X0106255Y0136630D01*
X0105563Y0135938D01*
X0105563Y0135055D01*
X0104382Y0135055D01*
X0104382Y0135347D01*
X0103690Y0136039D01*
X0099562Y0136039D01*
X0098870Y0135347D01*
X0098870Y0131219D01*
X0099562Y0130528D01*
X0103690Y0130528D01*
X0104382Y0131219D01*
X0104382Y0131512D01*
X0105563Y0131512D01*
X0105563Y0130629D01*
X0106255Y0129937D01*
X0111171Y0129937D01*
X0111666Y0130432D01*
X0111666Y0062159D01*
X0113634Y0060190D01*
X0113634Y0056647D01*
X0114067Y0056214D01*
X0114067Y0054507D01*
X0114070Y0054504D01*
X0114067Y0054501D01*
X0114067Y0052538D01*
X0114125Y0052481D02*
X0108029Y0052481D01*
X0108029Y0051695D02*
X0117571Y0051695D01*
X0117665Y0050909D02*
X0108029Y0050909D01*
X0108029Y0050123D02*
X0117861Y0050123D01*
X0113870Y0051551D02*
X0110918Y0054504D01*
X0108029Y0054839D02*
X0114067Y0054839D01*
X0114067Y0055625D02*
X0108029Y0055625D01*
X0108029Y0056411D02*
X0113871Y0056411D01*
X0113634Y0057196D02*
X0108029Y0057196D01*
X0108029Y0057982D02*
X0113634Y0057982D01*
X0113634Y0058768D02*
X0107634Y0058768D01*
X0106848Y0059554D02*
X0113634Y0059554D01*
X0113484Y0060340D02*
X0106063Y0060340D01*
X0105277Y0061126D02*
X0112698Y0061126D01*
X0111912Y0061912D02*
X0104491Y0061912D01*
X0103705Y0062698D02*
X0111666Y0062698D01*
X0111666Y0063484D02*
X0102919Y0063484D01*
X0111666Y0064270D02*
X0038044Y0064270D01*
X0038044Y0065056D02*
X0111666Y0065056D01*
X0111666Y0065842D02*
X0038044Y0065842D01*
X0038044Y0066627D02*
X0111666Y0066627D01*
X0111666Y0067413D02*
X0038044Y0067413D01*
X0038044Y0068199D02*
X0111666Y0068199D01*
X0111666Y0068985D02*
X0038044Y0068985D01*
X0038044Y0069771D02*
X0111666Y0069771D01*
X0111666Y0070557D02*
X0038044Y0070557D01*
X0038044Y0071343D02*
X0111666Y0071343D01*
X0111666Y0072129D02*
X0038044Y0072129D01*
X0038044Y0072915D02*
X0111666Y0072915D01*
X0111666Y0073701D02*
X0038044Y0073701D01*
X0038044Y0074487D02*
X0111666Y0074487D01*
X0111666Y0075272D02*
X0038044Y0075272D01*
X0038044Y0076058D02*
X0111666Y0076058D01*
X0111666Y0076844D02*
X0038044Y0076844D01*
X0038044Y0077630D02*
X0111666Y0077630D01*
X0111666Y0078416D02*
X0038044Y0078416D01*
X0038044Y0079202D02*
X0111666Y0079202D01*
X0111666Y0079988D02*
X0038044Y0079988D01*
X0038044Y0080774D02*
X0111666Y0080774D01*
X0111666Y0081560D02*
X0038044Y0081560D01*
X0038044Y0082346D02*
X0111666Y0082346D01*
X0111666Y0083132D02*
X0038044Y0083132D01*
X0038044Y0083918D02*
X0111666Y0083918D01*
X0111666Y0084703D02*
X0038044Y0084703D01*
X0038044Y0085489D02*
X0111666Y0085489D01*
X0111666Y0086275D02*
X0038044Y0086275D01*
X0038044Y0087061D02*
X0111666Y0087061D01*
X0111666Y0087847D02*
X0038044Y0087847D01*
X0038044Y0088633D02*
X0111666Y0088633D01*
X0111666Y0089419D02*
X0038044Y0089419D01*
X0038044Y0090205D02*
X0111666Y0090205D01*
X0111666Y0090991D02*
X0038044Y0090991D01*
X0038044Y0091777D02*
X0111666Y0091777D01*
X0111666Y0092563D02*
X0038044Y0092563D01*
X0038044Y0093348D02*
X0111666Y0093348D01*
X0111666Y0094134D02*
X0038044Y0094134D01*
X0038044Y0094920D02*
X0111666Y0094920D01*
X0111666Y0095706D02*
X0038044Y0095706D01*
X0038044Y0096492D02*
X0111666Y0096492D01*
X0111666Y0097278D02*
X0038044Y0097278D01*
X0038044Y0098064D02*
X0111666Y0098064D01*
X0111666Y0098850D02*
X0038044Y0098850D01*
X0038044Y0099636D02*
X0111666Y0099636D01*
X0111666Y0100422D02*
X0038044Y0100422D01*
X0038044Y0101208D02*
X0111666Y0101208D01*
X0111666Y0101994D02*
X0038044Y0101994D01*
X0038044Y0102779D02*
X0111666Y0102779D01*
X0111666Y0103565D02*
X0038044Y0103565D01*
X0038044Y0104351D02*
X0111666Y0104351D01*
X0111666Y0105137D02*
X0038044Y0105137D01*
X0038044Y0105923D02*
X0111666Y0105923D01*
X0111666Y0106709D02*
X0038044Y0106709D01*
X0038044Y0107495D02*
X0111666Y0107495D01*
X0111666Y0108281D02*
X0038044Y0108281D01*
X0038044Y0109067D02*
X0111666Y0109067D01*
X0111666Y0109853D02*
X0038044Y0109853D01*
X0038044Y0110639D02*
X0111666Y0110639D01*
X0111666Y0111424D02*
X0038044Y0111424D01*
X0038044Y0112210D02*
X0111666Y0112210D01*
X0111666Y0112996D02*
X0038044Y0112996D01*
X0038044Y0113782D02*
X0111666Y0113782D01*
X0111666Y0114568D02*
X0038044Y0114568D01*
X0038044Y0115354D02*
X0111666Y0115354D01*
X0111666Y0116140D02*
X0038044Y0116140D01*
X0038044Y0116926D02*
X0111666Y0116926D01*
X0111666Y0117712D02*
X0038044Y0117712D01*
X0038044Y0118498D02*
X0111666Y0118498D01*
X0111666Y0119284D02*
X0038044Y0119284D01*
X0038044Y0120070D02*
X0111666Y0120070D01*
X0111666Y0120855D02*
X0038044Y0120855D01*
X0038044Y0121641D02*
X0111666Y0121641D01*
X0111666Y0122427D02*
X0038044Y0122427D01*
X0038044Y0123213D02*
X0111666Y0123213D01*
X0111666Y0123999D02*
X0038044Y0123999D01*
X0038044Y0124785D02*
X0111666Y0124785D01*
X0111666Y0125571D02*
X0038044Y0125571D01*
X0038044Y0126357D02*
X0111666Y0126357D01*
X0111666Y0127143D02*
X0038044Y0127143D01*
X0038044Y0127929D02*
X0111666Y0127929D01*
X0111666Y0128715D02*
X0038044Y0128715D01*
X0038044Y0129500D02*
X0111666Y0129500D01*
X0111666Y0130286D02*
X0111520Y0130286D01*
X0113241Y0130286D02*
X0117571Y0130286D01*
X0117571Y0130921D02*
X0117571Y0057299D01*
X0115248Y0057299D01*
X0115248Y0058930D01*
X0115209Y0058970D01*
X0115209Y0060843D01*
X0113241Y0062811D01*
X0113241Y0136433D01*
X0140800Y0136433D01*
X0140800Y0121079D01*
X0138044Y0121079D01*
X0138044Y0130921D01*
X0117571Y0130921D01*
X0117571Y0129500D02*
X0113241Y0129500D01*
X0113241Y0128715D02*
X0117571Y0128715D01*
X0117571Y0127929D02*
X0113241Y0127929D01*
X0113241Y0127143D02*
X0117571Y0127143D01*
X0117571Y0126357D02*
X0113241Y0126357D01*
X0113241Y0125571D02*
X0117571Y0125571D01*
X0117571Y0124785D02*
X0113241Y0124785D01*
X0113241Y0123999D02*
X0117571Y0123999D01*
X0117571Y0123213D02*
X0113241Y0123213D01*
X0113241Y0122427D02*
X0117571Y0122427D01*
X0117571Y0121641D02*
X0113241Y0121641D01*
X0113241Y0120855D02*
X0117571Y0120855D01*
X0117571Y0120070D02*
X0113241Y0120070D01*
X0113241Y0119284D02*
X0117571Y0119284D01*
X0117571Y0118498D02*
X0113241Y0118498D01*
X0113241Y0117712D02*
X0117571Y0117712D01*
X0117571Y0116926D02*
X0113241Y0116926D01*
X0113241Y0116140D02*
X0117571Y0116140D01*
X0117571Y0115354D02*
X0113241Y0115354D01*
X0113241Y0114568D02*
X0117571Y0114568D01*
X0117571Y0113782D02*
X0113241Y0113782D01*
X0113241Y0112996D02*
X0117571Y0112996D01*
X0117571Y0112210D02*
X0113241Y0112210D01*
X0113241Y0111424D02*
X0117571Y0111424D01*
X0117571Y0110639D02*
X0113241Y0110639D01*
X0113241Y0109853D02*
X0117571Y0109853D01*
X0117571Y0109067D02*
X0113241Y0109067D01*
X0113241Y0108281D02*
X0117571Y0108281D01*
X0117571Y0107495D02*
X0113241Y0107495D01*
X0113241Y0106709D02*
X0117571Y0106709D01*
X0117571Y0105923D02*
X0113241Y0105923D01*
X0113241Y0105137D02*
X0117571Y0105137D01*
X0117571Y0104351D02*
X0113241Y0104351D01*
X0113241Y0103565D02*
X0117571Y0103565D01*
X0117571Y0102779D02*
X0113241Y0102779D01*
X0113241Y0101994D02*
X0117571Y0101994D01*
X0117571Y0101208D02*
X0113241Y0101208D01*
X0113241Y0100422D02*
X0117571Y0100422D01*
X0117571Y0099636D02*
X0113241Y0099636D01*
X0113241Y0098850D02*
X0117571Y0098850D01*
X0117571Y0098064D02*
X0113241Y0098064D01*
X0113241Y0097278D02*
X0117571Y0097278D01*
X0117571Y0096492D02*
X0113241Y0096492D01*
X0113241Y0095706D02*
X0117571Y0095706D01*
X0117571Y0094920D02*
X0113241Y0094920D01*
X0113241Y0094134D02*
X0117571Y0094134D01*
X0117571Y0093348D02*
X0113241Y0093348D01*
X0113241Y0092563D02*
X0117571Y0092563D01*
X0117571Y0091777D02*
X0113241Y0091777D01*
X0113241Y0090991D02*
X0117571Y0090991D01*
X0117571Y0090205D02*
X0113241Y0090205D01*
X0113241Y0089419D02*
X0117571Y0089419D01*
X0117571Y0088633D02*
X0113241Y0088633D01*
X0113241Y0087847D02*
X0117571Y0087847D01*
X0117571Y0087061D02*
X0113241Y0087061D01*
X0113241Y0086275D02*
X0117571Y0086275D01*
X0117571Y0085489D02*
X0113241Y0085489D01*
X0113241Y0084703D02*
X0117571Y0084703D01*
X0117571Y0083918D02*
X0113241Y0083918D01*
X0113241Y0083132D02*
X0117571Y0083132D01*
X0117571Y0082346D02*
X0113241Y0082346D01*
X0113241Y0081560D02*
X0117571Y0081560D01*
X0117571Y0080774D02*
X0113241Y0080774D01*
X0113241Y0079988D02*
X0117571Y0079988D01*
X0117571Y0079202D02*
X0113241Y0079202D01*
X0113241Y0078416D02*
X0117571Y0078416D01*
X0117571Y0077630D02*
X0113241Y0077630D01*
X0113241Y0076844D02*
X0117571Y0076844D01*
X0117571Y0076058D02*
X0113241Y0076058D01*
X0113241Y0075272D02*
X0117571Y0075272D01*
X0117571Y0074487D02*
X0113241Y0074487D01*
X0113241Y0073701D02*
X0117571Y0073701D01*
X0117571Y0072915D02*
X0113241Y0072915D01*
X0113241Y0072129D02*
X0117571Y0072129D01*
X0117571Y0071343D02*
X0113241Y0071343D01*
X0113241Y0070557D02*
X0117571Y0070557D01*
X0117571Y0069771D02*
X0113241Y0069771D01*
X0113241Y0068985D02*
X0117571Y0068985D01*
X0117571Y0068199D02*
X0113241Y0068199D01*
X0113241Y0067413D02*
X0117571Y0067413D01*
X0117571Y0066627D02*
X0113241Y0066627D01*
X0113241Y0065842D02*
X0117571Y0065842D01*
X0117571Y0065056D02*
X0113241Y0065056D01*
X0113241Y0064270D02*
X0117571Y0064270D01*
X0117571Y0063484D02*
X0113241Y0063484D01*
X0113354Y0062698D02*
X0117571Y0062698D01*
X0117571Y0061912D02*
X0114140Y0061912D01*
X0114926Y0061126D02*
X0117571Y0061126D01*
X0117571Y0060340D02*
X0115209Y0060340D01*
X0115209Y0059554D02*
X0117571Y0059554D01*
X0117571Y0058768D02*
X0115248Y0058768D01*
X0115248Y0057982D02*
X0117571Y0057982D01*
X0119146Y0061912D02*
X0202611Y0061912D01*
X0202611Y0062698D02*
X0119146Y0062698D01*
X0119146Y0063484D02*
X0202611Y0063484D01*
X0202611Y0064270D02*
X0119146Y0064270D01*
X0119146Y0065056D02*
X0202611Y0065056D01*
X0202611Y0065842D02*
X0119146Y0065842D01*
X0119146Y0066627D02*
X0202611Y0066627D01*
X0202611Y0067413D02*
X0119146Y0067413D01*
X0119146Y0068199D02*
X0202611Y0068199D01*
X0202611Y0068985D02*
X0119146Y0068985D01*
X0119146Y0069771D02*
X0172803Y0069771D01*
X0171798Y0070187D02*
X0174114Y0069228D01*
X0176620Y0069228D01*
X0178935Y0070187D01*
X0180707Y0071959D01*
X0181666Y0074275D01*
X0181666Y0076781D01*
X0180707Y0079096D01*
X0178935Y0080868D01*
X0176620Y0081827D01*
X0174114Y0081827D01*
X0171798Y0080868D01*
X0170026Y0079096D01*
X0169067Y0076781D01*
X0169067Y0074275D01*
X0170026Y0071959D01*
X0171798Y0070187D01*
X0171429Y0070557D02*
X0119146Y0070557D01*
X0119146Y0071343D02*
X0170643Y0071343D01*
X0169956Y0072129D02*
X0119146Y0072129D01*
X0119146Y0072915D02*
X0169631Y0072915D01*
X0169305Y0073701D02*
X0119146Y0073701D01*
X0119146Y0074487D02*
X0169067Y0074487D01*
X0169067Y0075272D02*
X0119146Y0075272D01*
X0119146Y0076058D02*
X0169067Y0076058D01*
X0169094Y0076844D02*
X0119146Y0076844D01*
X0119146Y0077630D02*
X0169419Y0077630D01*
X0169745Y0078416D02*
X0119146Y0078416D01*
X0119146Y0079202D02*
X0170133Y0079202D01*
X0170919Y0079988D02*
X0119146Y0079988D01*
X0119146Y0080774D02*
X0171704Y0080774D01*
X0173469Y0081560D02*
X0119146Y0081560D01*
X0119146Y0082346D02*
X0202611Y0082346D01*
X0202611Y0083132D02*
X0119146Y0083132D01*
X0119146Y0083918D02*
X0202611Y0083918D01*
X0202611Y0084703D02*
X0119146Y0084703D01*
X0119146Y0085489D02*
X0202611Y0085489D01*
X0202611Y0086275D02*
X0119146Y0086275D01*
X0119146Y0087061D02*
X0202611Y0087061D01*
X0202611Y0087847D02*
X0119146Y0087847D01*
X0119146Y0088633D02*
X0202611Y0088633D01*
X0202611Y0089419D02*
X0119146Y0089419D01*
X0119146Y0090205D02*
X0202611Y0090205D01*
X0202611Y0090991D02*
X0119146Y0090991D01*
X0119146Y0091777D02*
X0202611Y0091777D01*
X0202611Y0092563D02*
X0119146Y0092563D01*
X0119146Y0093348D02*
X0202611Y0093348D01*
X0202611Y0094134D02*
X0119146Y0094134D01*
X0119146Y0094920D02*
X0202611Y0094920D01*
X0202611Y0095706D02*
X0119146Y0095706D01*
X0119146Y0096492D02*
X0202611Y0096492D01*
X0202611Y0097278D02*
X0119146Y0097278D01*
X0119146Y0098064D02*
X0202611Y0098064D01*
X0202611Y0098850D02*
X0119146Y0098850D01*
X0119146Y0099636D02*
X0157653Y0099636D01*
X0157335Y0099954D02*
X0157335Y0119504D01*
X0146447Y0119504D01*
X0145524Y0120426D01*
X0145524Y0136298D01*
X0146447Y0137220D01*
X0173342Y0137220D01*
X0174264Y0136298D01*
X0174264Y0116746D01*
X0176638Y0115763D01*
X0179185Y0113216D01*
X0180563Y0109888D01*
X0180563Y0106285D01*
X0179185Y0102957D01*
X0176638Y0100410D01*
X0173364Y0099054D01*
X0173342Y0099031D01*
X0158258Y0099031D01*
X0157335Y0099954D01*
X0157335Y0100422D02*
X0119146Y0100422D01*
X0119146Y0101208D02*
X0157335Y0101208D01*
X0157335Y0101994D02*
X0119146Y0101994D01*
X0119146Y0102779D02*
X0157335Y0102779D01*
X0157335Y0103565D02*
X0119146Y0103565D01*
X0119146Y0104351D02*
X0157335Y0104351D01*
X0157335Y0105137D02*
X0119146Y0105137D01*
X0119146Y0105923D02*
X0157335Y0105923D01*
X0157335Y0106709D02*
X0119146Y0106709D01*
X0119146Y0107495D02*
X0157335Y0107495D01*
X0157335Y0108281D02*
X0119146Y0108281D01*
X0119146Y0109067D02*
X0157335Y0109067D01*
X0157335Y0109853D02*
X0119146Y0109853D01*
X0119146Y0110639D02*
X0157335Y0110639D01*
X0157335Y0111424D02*
X0125445Y0111424D01*
X0125445Y0112210D02*
X0157335Y0112210D01*
X0157335Y0112996D02*
X0125445Y0112996D01*
X0125445Y0113782D02*
X0157335Y0113782D01*
X0157335Y0114568D02*
X0125445Y0114568D01*
X0125445Y0115354D02*
X0157335Y0115354D01*
X0157335Y0116140D02*
X0125445Y0116140D01*
X0125325Y0116926D02*
X0157335Y0116926D01*
X0157335Y0117712D02*
X0125445Y0117712D01*
X0125445Y0118498D02*
X0157335Y0118498D01*
X0157335Y0119284D02*
X0125445Y0119284D01*
X0125445Y0120070D02*
X0132548Y0120070D01*
X0132193Y0120855D02*
X0125445Y0120855D01*
X0125445Y0121641D02*
X0132193Y0121641D01*
X0132193Y0122427D02*
X0124980Y0122427D01*
X0125248Y0123213D02*
X0132193Y0123213D01*
X0138044Y0123213D02*
X0140800Y0123213D01*
X0140800Y0122427D02*
X0138044Y0122427D01*
X0138044Y0121641D02*
X0140800Y0121641D01*
X0142374Y0121641D02*
X0145524Y0121641D01*
X0145524Y0120855D02*
X0142374Y0120855D01*
X0142017Y0120070D02*
X0145881Y0120070D01*
X0147099Y0121079D02*
X0147099Y0135646D01*
X0172689Y0135646D01*
X0172689Y0100606D01*
X0158910Y0100606D01*
X0158910Y0121079D01*
X0147099Y0121079D01*
X0147099Y0121641D02*
X0172689Y0121641D01*
X0172689Y0120855D02*
X0158910Y0120855D01*
X0158910Y0120070D02*
X0172689Y0120070D01*
X0172689Y0119284D02*
X0158910Y0119284D01*
X0158910Y0118498D02*
X0172689Y0118498D01*
X0172689Y0117712D02*
X0158910Y0117712D01*
X0158910Y0116926D02*
X0172689Y0116926D01*
X0172689Y0116140D02*
X0158910Y0116140D01*
X0158910Y0115354D02*
X0172689Y0115354D01*
X0172689Y0114568D02*
X0158910Y0114568D01*
X0158910Y0113782D02*
X0172689Y0113782D01*
X0172689Y0112996D02*
X0158910Y0112996D01*
X0158910Y0112210D02*
X0172689Y0112210D01*
X0172689Y0111424D02*
X0158910Y0111424D01*
X0158910Y0110639D02*
X0172689Y0110639D01*
X0172689Y0109853D02*
X0158910Y0109853D01*
X0158910Y0109067D02*
X0172689Y0109067D01*
X0172689Y0108281D02*
X0158910Y0108281D01*
X0158910Y0107495D02*
X0172689Y0107495D01*
X0172689Y0106709D02*
X0158910Y0106709D01*
X0158910Y0105923D02*
X0172689Y0105923D01*
X0172689Y0105137D02*
X0158910Y0105137D01*
X0158910Y0104351D02*
X0172689Y0104351D01*
X0172689Y0103565D02*
X0158910Y0103565D01*
X0158910Y0102779D02*
X0172689Y0102779D01*
X0172689Y0101994D02*
X0158910Y0101994D01*
X0158910Y0101208D02*
X0172689Y0101208D01*
X0174768Y0099636D02*
X0202611Y0099636D01*
X0202611Y0100422D02*
X0176649Y0100422D01*
X0177435Y0101208D02*
X0202611Y0101208D01*
X0202611Y0101994D02*
X0178221Y0101994D01*
X0179007Y0102779D02*
X0202611Y0102779D01*
X0202611Y0103565D02*
X0179437Y0103565D01*
X0179762Y0104351D02*
X0202611Y0104351D01*
X0202611Y0105137D02*
X0180088Y0105137D01*
X0180413Y0105923D02*
X0202611Y0105923D01*
X0202611Y0106709D02*
X0180563Y0106709D01*
X0180563Y0107495D02*
X0202611Y0107495D01*
X0202611Y0108281D02*
X0180563Y0108281D01*
X0180563Y0109067D02*
X0202611Y0109067D01*
X0202611Y0109853D02*
X0180563Y0109853D01*
X0180252Y0110639D02*
X0202611Y0110639D01*
X0202611Y0111424D02*
X0179927Y0111424D01*
X0179601Y0112210D02*
X0202611Y0112210D01*
X0202611Y0112996D02*
X0179276Y0112996D01*
X0178619Y0113782D02*
X0202611Y0113782D01*
X0202611Y0114568D02*
X0177833Y0114568D01*
X0177047Y0115354D02*
X0202611Y0115354D01*
X0202611Y0116140D02*
X0175728Y0116140D01*
X0174264Y0116926D02*
X0202611Y0116926D01*
X0202611Y0117712D02*
X0174264Y0117712D01*
X0174264Y0118498D02*
X0202611Y0118498D01*
X0202611Y0119284D02*
X0174264Y0119284D01*
X0174264Y0120070D02*
X0202611Y0120070D01*
X0202611Y0120855D02*
X0174264Y0120855D01*
X0174264Y0121641D02*
X0202611Y0121641D01*
X0202611Y0122427D02*
X0174264Y0122427D01*
X0174264Y0123213D02*
X0202611Y0123213D01*
X0202611Y0123999D02*
X0174264Y0123999D01*
X0174264Y0124785D02*
X0202611Y0124785D01*
X0202611Y0125571D02*
X0174264Y0125571D01*
X0174264Y0126357D02*
X0202611Y0126357D01*
X0202611Y0127143D02*
X0174264Y0127143D01*
X0174264Y0127929D02*
X0202611Y0127929D01*
X0202611Y0128715D02*
X0174264Y0128715D01*
X0174264Y0129500D02*
X0202611Y0129500D01*
X0202611Y0130286D02*
X0174264Y0130286D01*
X0174264Y0131072D02*
X0202611Y0131072D01*
X0202611Y0131858D02*
X0174264Y0131858D01*
X0174264Y0132644D02*
X0202611Y0132644D01*
X0202611Y0133430D02*
X0174264Y0133430D01*
X0174264Y0134216D02*
X0202611Y0134216D01*
X0202611Y0135002D02*
X0174264Y0135002D01*
X0174264Y0135788D02*
X0202611Y0135788D01*
X0202611Y0136574D02*
X0173988Y0136574D01*
X0172689Y0135002D02*
X0147099Y0135002D01*
X0147099Y0134216D02*
X0172689Y0134216D01*
X0172689Y0133430D02*
X0147099Y0133430D01*
X0147099Y0132644D02*
X0172689Y0132644D01*
X0172689Y0131858D02*
X0147099Y0131858D01*
X0147099Y0131072D02*
X0172689Y0131072D01*
X0172689Y0130286D02*
X0147099Y0130286D01*
X0147099Y0129500D02*
X0172689Y0129500D01*
X0172689Y0128715D02*
X0147099Y0128715D01*
X0147099Y0127929D02*
X0172689Y0127929D01*
X0172689Y0127143D02*
X0147099Y0127143D01*
X0147099Y0126357D02*
X0172689Y0126357D01*
X0172689Y0125571D02*
X0147099Y0125571D01*
X0147099Y0124785D02*
X0172689Y0124785D01*
X0172689Y0123999D02*
X0147099Y0123999D01*
X0147099Y0123213D02*
X0172689Y0123213D01*
X0172689Y0122427D02*
X0147099Y0122427D01*
X0145524Y0122427D02*
X0142374Y0122427D01*
X0142374Y0123213D02*
X0145524Y0123213D01*
X0145524Y0123999D02*
X0142374Y0123999D01*
X0142374Y0124785D02*
X0145524Y0124785D01*
X0145524Y0125571D02*
X0142374Y0125571D01*
X0142374Y0126357D02*
X0145524Y0126357D01*
X0145524Y0127143D02*
X0142374Y0127143D01*
X0142374Y0127929D02*
X0145524Y0127929D01*
X0145524Y0128715D02*
X0142374Y0128715D01*
X0142374Y0129500D02*
X0145524Y0129500D01*
X0145524Y0130286D02*
X0142374Y0130286D01*
X0142374Y0131072D02*
X0145524Y0131072D01*
X0145524Y0131858D02*
X0142374Y0131858D01*
X0142374Y0132644D02*
X0145524Y0132644D01*
X0145524Y0133430D02*
X0142374Y0133430D01*
X0142374Y0134216D02*
X0145524Y0134216D01*
X0145524Y0135002D02*
X0142374Y0135002D01*
X0142374Y0135788D02*
X0145524Y0135788D01*
X0145800Y0136574D02*
X0142374Y0136574D01*
X0142100Y0137360D02*
X0202611Y0137360D01*
X0202611Y0138146D02*
X0038044Y0138146D01*
X0038044Y0138931D02*
X0202611Y0138931D01*
X0202611Y0139717D02*
X0038044Y0139717D01*
X0038044Y0140503D02*
X0202611Y0140503D01*
X0202611Y0141289D02*
X0038044Y0141289D01*
X0038044Y0142075D02*
X0202611Y0142075D01*
X0202611Y0142861D02*
X0038044Y0142861D01*
X0038044Y0143647D02*
X0202611Y0143647D01*
X0202611Y0144433D02*
X0038044Y0144433D01*
X0038044Y0145219D02*
X0202611Y0145219D01*
X0202611Y0146005D02*
X0038044Y0146005D01*
X0038044Y0146791D02*
X0202611Y0146791D01*
X0202611Y0147576D02*
X0038044Y0147576D01*
X0038044Y0148362D02*
X0202611Y0148362D01*
X0202611Y0149148D02*
X0038044Y0149148D01*
X0038044Y0149934D02*
X0202611Y0149934D01*
X0202611Y0150720D02*
X0038044Y0150720D01*
X0038044Y0151506D02*
X0202611Y0151506D01*
X0202611Y0152292D02*
X0038044Y0152292D01*
X0038044Y0137360D02*
X0111940Y0137360D01*
X0111666Y0136574D02*
X0111227Y0136574D01*
X0113241Y0135788D02*
X0140800Y0135788D01*
X0140800Y0135002D02*
X0113241Y0135002D01*
X0113241Y0134216D02*
X0140800Y0134216D01*
X0140800Y0133430D02*
X0113241Y0133430D01*
X0113241Y0132644D02*
X0140800Y0132644D01*
X0140800Y0131858D02*
X0113241Y0131858D01*
X0113241Y0131072D02*
X0140800Y0131072D01*
X0140800Y0130286D02*
X0138044Y0130286D01*
X0138044Y0129500D02*
X0140800Y0129500D01*
X0140800Y0128715D02*
X0138044Y0128715D01*
X0138044Y0127929D02*
X0140800Y0127929D01*
X0140800Y0127143D02*
X0138044Y0127143D01*
X0138044Y0126357D02*
X0140800Y0126357D01*
X0140800Y0125571D02*
X0138044Y0125571D01*
X0138044Y0124785D02*
X0140800Y0124785D01*
X0140800Y0123999D02*
X0138044Y0123999D01*
X0105906Y0130286D02*
X0038044Y0130286D01*
X0038044Y0131072D02*
X0099018Y0131072D01*
X0098870Y0131858D02*
X0038044Y0131858D01*
X0038044Y0132644D02*
X0098870Y0132644D01*
X0098870Y0133430D02*
X0038044Y0133430D01*
X0038044Y0134216D02*
X0098870Y0134216D01*
X0098870Y0135002D02*
X0038044Y0135002D01*
X0038044Y0135788D02*
X0099311Y0135788D01*
X0103942Y0135788D02*
X0105563Y0135788D01*
X0106199Y0136574D02*
X0038044Y0136574D01*
X0104235Y0131072D02*
X0105563Y0131072D01*
X0177264Y0081560D02*
X0202611Y0081560D01*
X0202611Y0080774D02*
X0179029Y0080774D01*
X0179815Y0079988D02*
X0202611Y0079988D01*
X0202611Y0079202D02*
X0180600Y0079202D01*
X0180988Y0078416D02*
X0202611Y0078416D01*
X0202611Y0077630D02*
X0181314Y0077630D01*
X0181639Y0076844D02*
X0202611Y0076844D01*
X0202611Y0076058D02*
X0181666Y0076058D01*
X0181666Y0075272D02*
X0202611Y0075272D01*
X0202611Y0074487D02*
X0181666Y0074487D01*
X0181428Y0073701D02*
X0202611Y0073701D01*
X0202611Y0072915D02*
X0181102Y0072915D01*
X0180777Y0072129D02*
X0202611Y0072129D01*
X0202611Y0071343D02*
X0180090Y0071343D01*
X0179304Y0070557D02*
X0202611Y0070557D01*
X0202611Y0069771D02*
X0177930Y0069771D01*
X0159998Y0059554D02*
X0202611Y0059554D01*
X0202611Y0058768D02*
X0160784Y0058768D01*
X0160785Y0057982D02*
X0202611Y0057982D01*
X0202611Y0057196D02*
X0160785Y0057196D01*
X0160785Y0056411D02*
X0202611Y0056411D01*
X0202611Y0055625D02*
X0160785Y0055625D01*
X0160785Y0054839D02*
X0202611Y0054839D01*
X0202611Y0054053D02*
X0160785Y0054053D01*
X0160785Y0053267D02*
X0202611Y0053267D01*
X0202611Y0052481D02*
X0160785Y0052481D01*
X0160192Y0051695D02*
X0202611Y0051695D01*
X0202611Y0050909D02*
X0159406Y0050909D01*
X0158620Y0050123D02*
X0202611Y0050123D01*
X0202611Y0049337D02*
X0108029Y0049337D01*
X0108029Y0048551D02*
X0202611Y0048551D01*
X0202611Y0047766D02*
X0107444Y0047766D01*
X0106658Y0046980D02*
X0202611Y0046980D01*
X0202611Y0046194D02*
X0105872Y0046194D01*
X0105086Y0045408D02*
X0202611Y0045408D01*
X0202611Y0044622D02*
X0085009Y0044622D01*
X0084223Y0043836D02*
X0202611Y0043836D01*
X0202611Y0043050D02*
X0083437Y0043050D01*
X0082651Y0042264D02*
X0202611Y0042264D01*
X0202611Y0041478D02*
X0177461Y0041478D01*
X0176620Y0041827D02*
X0178935Y0040868D01*
X0180707Y0039096D01*
X0181666Y0036781D01*
X0181666Y0034275D01*
X0180707Y0031959D01*
X0178935Y0030187D01*
X0176620Y0029228D01*
X0174114Y0029228D01*
X0171798Y0030187D01*
X0170026Y0031959D01*
X0169067Y0034275D01*
X0169067Y0036781D01*
X0170026Y0039096D01*
X0171798Y0040868D01*
X0174114Y0041827D01*
X0176620Y0041827D01*
X0179110Y0040692D02*
X0202611Y0040692D01*
X0202611Y0039906D02*
X0179896Y0039906D01*
X0180682Y0039120D02*
X0202611Y0039120D01*
X0202611Y0038335D02*
X0181022Y0038335D01*
X0181348Y0037549D02*
X0202611Y0037549D01*
X0202611Y0036763D02*
X0181666Y0036763D01*
X0181666Y0035977D02*
X0202611Y0035977D01*
X0202611Y0035191D02*
X0181666Y0035191D01*
X0181666Y0034405D02*
X0202611Y0034405D01*
X0202611Y0033619D02*
X0181394Y0033619D01*
X0181069Y0032833D02*
X0202611Y0032833D01*
X0202611Y0032047D02*
X0180743Y0032047D01*
X0180009Y0031261D02*
X0202611Y0031261D01*
X0202611Y0030475D02*
X0179223Y0030475D01*
X0177733Y0029690D02*
X0202611Y0029690D01*
X0202611Y0028904D02*
X0038044Y0028904D01*
X0038044Y0029690D02*
X0173000Y0029690D01*
X0171510Y0030475D02*
X0038044Y0030475D01*
X0038044Y0031261D02*
X0170724Y0031261D01*
X0169990Y0032047D02*
X0038044Y0032047D01*
X0038044Y0032833D02*
X0169664Y0032833D01*
X0169339Y0033619D02*
X0038044Y0033619D01*
X0038044Y0034405D02*
X0169067Y0034405D01*
X0169067Y0035191D02*
X0038044Y0035191D01*
X0038044Y0035977D02*
X0169067Y0035977D01*
X0169067Y0036763D02*
X0038044Y0036763D01*
X0038044Y0037549D02*
X0169385Y0037549D01*
X0169711Y0038335D02*
X0038044Y0038335D01*
X0038044Y0039120D02*
X0170051Y0039120D01*
X0170837Y0039906D02*
X0038044Y0039906D01*
X0038044Y0040692D02*
X0171623Y0040692D01*
X0173272Y0041478D02*
X0038044Y0041478D01*
X0038044Y0028118D02*
X0202611Y0028118D01*
X0202611Y0027332D02*
X0038044Y0027332D01*
X0038044Y0026546D02*
X0202611Y0026546D01*
X0202611Y0025760D02*
X0038044Y0025760D01*
X0038044Y0024974D02*
X0202611Y0024974D01*
X0202611Y0024188D02*
X0038044Y0024188D01*
X0038044Y0023402D02*
X0202611Y0023402D01*
X0202611Y0022616D02*
X0038044Y0022616D01*
X0038044Y0021830D02*
X0202611Y0021830D01*
X0202611Y0021045D02*
X0038044Y0021045D01*
X0038044Y0020259D02*
X0202611Y0020259D01*
X0202611Y0019473D02*
X0038044Y0019473D01*
X0038044Y0018687D02*
X0202611Y0018687D01*
X0202611Y0017901D02*
X0038044Y0017901D01*
X0038044Y0017115D02*
X0202611Y0017115D01*
X0202611Y0016329D02*
X0038044Y0016329D01*
X0038044Y0015543D02*
X0202611Y0015543D01*
X0202611Y0014757D02*
X0038044Y0014757D01*
X0038044Y0013971D02*
X0202611Y0013971D01*
X0202611Y0013185D02*
X0038044Y0013185D01*
X0038044Y0012399D02*
X0202611Y0012399D01*
X0202611Y0011614D02*
X0038044Y0011614D01*
X0038044Y0010828D02*
X0202611Y0010828D01*
X0202611Y0010042D02*
X0038044Y0010042D01*
X0038044Y0009256D02*
X0202611Y0009256D01*
X0202611Y0008470D02*
X0038044Y0008470D01*
X0038044Y0007684D02*
X0202611Y0007684D01*
X0202611Y0006898D02*
X0038044Y0006898D01*
X0038044Y0006112D02*
X0202611Y0006112D01*
X0114067Y0054053D02*
X0108029Y0054053D01*
X0086951Y0061912D02*
X0038044Y0061912D01*
X0038044Y0061126D02*
X0086165Y0061126D01*
X0085379Y0060340D02*
X0038044Y0060340D01*
X0038044Y0059554D02*
X0084593Y0059554D01*
X0083807Y0058768D02*
X0038044Y0058768D01*
X0038044Y0057982D02*
X0083021Y0057982D01*
X0082236Y0057196D02*
X0038044Y0057196D01*
X0158426Y0061126D02*
X0202611Y0061126D01*
X0202611Y0060340D02*
X0159212Y0060340D01*
D27*
X0110878Y0057299D03*
X0110878Y0051787D03*
X0138831Y0093126D03*
X0143949Y0093126D03*
X0149067Y0093126D03*
X0149067Y0098244D03*
X0143949Y0098244D03*
X0138831Y0098244D03*
X0138831Y0103362D03*
X0143949Y0103362D03*
X0149067Y0103362D03*
D28*
X0148280Y0113598D03*
X0152611Y0113598D03*
X0143949Y0113598D03*
X0139619Y0113598D03*
X0135288Y0113598D03*
X0121902Y0102575D03*
X0099067Y0106512D03*
X0087256Y0094701D03*
X0075445Y0106512D03*
X0063634Y0094701D03*
X0051823Y0106512D03*
X0040012Y0109268D03*
X0040012Y0115173D03*
X0040012Y0121079D03*
X0040012Y0126984D03*
X0040012Y0132890D03*
X0051823Y0130134D03*
X0063634Y0141945D03*
X0065209Y0151000D03*
X0059304Y0151000D03*
X0071115Y0151000D03*
X0077020Y0151000D03*
X0082926Y0151000D03*
X0088831Y0151000D03*
X0094737Y0151000D03*
X0100642Y0151000D03*
X0106154Y0151000D03*
X0112059Y0151000D03*
X0117965Y0151000D03*
X0123870Y0151000D03*
X0129776Y0151000D03*
X0135681Y0151000D03*
X0134894Y0145882D03*
X0130563Y0145882D03*
X0126233Y0145882D03*
X0121902Y0145882D03*
X0110878Y0141945D03*
X0087256Y0141945D03*
X0075445Y0130134D03*
X0063634Y0118323D03*
X0087256Y0118323D03*
X0040012Y0103362D03*
X0040012Y0097457D03*
X0040012Y0091551D03*
X0040012Y0085646D03*
X0040012Y0079740D03*
X0040012Y0073835D03*
X0051823Y0082890D03*
X0063634Y0071079D03*
X0049461Y0065173D03*
X0041981Y0065173D03*
X0056548Y0058874D03*
X0062847Y0058874D03*
X0069540Y0058874D03*
X0076233Y0058874D03*
X0082532Y0060843D03*
X0088044Y0064386D03*
X0092768Y0067142D03*
X0098674Y0065961D03*
X0103792Y0065961D03*
X0108516Y0063598D03*
X0120327Y0058874D03*
X0120327Y0052181D03*
X0110878Y0046276D03*
X0105367Y0042732D03*
X0099855Y0042732D03*
X0094343Y0042732D03*
X0088831Y0038402D03*
X0082138Y0039976D03*
X0076233Y0039976D03*
X0069933Y0039976D03*
X0063634Y0039976D03*
X0056941Y0039976D03*
X0049067Y0033677D03*
X0041587Y0033677D03*
X0040012Y0026197D03*
X0063634Y0028165D03*
X0075445Y0016354D03*
X0076233Y0007299D03*
X0082138Y0007299D03*
X0088044Y0007299D03*
X0093949Y0007299D03*
X0099855Y0007299D03*
X0105367Y0007299D03*
X0111272Y0007299D03*
X0117178Y0007299D03*
X0123083Y0007299D03*
X0128989Y0007299D03*
X0134894Y0007299D03*
X0140800Y0007299D03*
X0146705Y0007299D03*
X0152611Y0007299D03*
X0158516Y0007299D03*
X0164422Y0007299D03*
X0170327Y0007299D03*
X0176233Y0007299D03*
X0182138Y0007299D03*
X0169933Y0016354D03*
X0158122Y0028165D03*
X0146311Y0039976D03*
X0148280Y0047850D03*
X0155367Y0047850D03*
X0141193Y0047850D03*
X0134107Y0047850D03*
X0126626Y0044307D03*
X0122689Y0039976D03*
X0118359Y0044307D03*
X0110878Y0028165D03*
X0087256Y0028165D03*
X0070327Y0007299D03*
X0064422Y0007299D03*
X0058516Y0007299D03*
X0134500Y0028165D03*
X0181744Y0028165D03*
X0200642Y0026984D03*
X0200642Y0032890D03*
X0200642Y0038795D03*
X0193556Y0039976D03*
X0200642Y0044701D03*
X0200642Y0050606D03*
X0200642Y0056512D03*
X0200642Y0062417D03*
X0193556Y0063598D03*
X0200642Y0068323D03*
X0200642Y0074228D03*
X0200642Y0080134D03*
X0200642Y0086039D03*
X0193556Y0087220D03*
X0200642Y0091945D03*
X0200642Y0097850D03*
X0169933Y0087220D03*
X0152611Y0083283D03*
X0148280Y0083283D03*
X0143949Y0083283D03*
X0139619Y0083283D03*
X0135288Y0083283D03*
X0126626Y0078165D03*
X0126626Y0070882D03*
X0126626Y0064583D03*
X0134107Y0063205D03*
X0141193Y0063205D03*
X0148280Y0063205D03*
X0169933Y0063598D03*
X0181744Y0051787D03*
X0158122Y0075409D03*
X0099067Y0082890D03*
X0087256Y0071079D03*
X0075445Y0082890D03*
X0139225Y0145882D03*
X0143949Y0145882D03*
X0148280Y0145882D03*
X0153004Y0145882D03*
X0157335Y0145882D03*
X0161666Y0145882D03*
X0165996Y0145882D03*
X0170327Y0145882D03*
X0171115Y0151000D03*
X0177020Y0151000D03*
X0182926Y0151000D03*
X0165209Y0151000D03*
X0159304Y0151000D03*
X0153398Y0151000D03*
X0147493Y0151000D03*
X0141587Y0151000D03*
X0200642Y0131315D03*
X0200642Y0125409D03*
X0200642Y0119504D03*
D29*
X0193162Y0143520D03*
X0047493Y0143520D03*
X0047493Y0014780D03*
X0193162Y0014780D03*
D30*
X0122099Y0113795D02*
X0122099Y0119504D01*
X0122099Y0125016D01*
X0121902Y0125213D01*
X0122099Y0125409D01*
X0134784Y0125409D01*
X0134949Y0125244D01*
X0108713Y0133283D02*
X0101626Y0133283D01*
D31*
X0126626Y0055528D02*
X0126823Y0055331D01*
X0134697Y0055331D01*
X0141390Y0055331D02*
X0155170Y0055331D01*
X0155367Y0055528D01*
X0100839Y0049622D02*
X0088831Y0049622D01*
X0077611Y0049622D01*
X0070918Y0049622D02*
X0045847Y0049622D01*
X0045650Y0049425D01*
M02*
